<svg width="169" height="158" viewBox="0 0 169 158" fill="none" xmlns="http://www.w3.org/2000/svg">
<path d="M71.8657 7.92432V23H68.6919V7.92432H63.0156V5.12891H77.8228V7.92432H71.8657ZM86.1357 25.0996C85.8102 25.9704 85.1226 26.6906 84.0728 27.2603C83.0229 27.8381 81.7656 28.127 80.3008 28.127V25.4292C82.6527 25.4292 83.8286 24.8351 83.8286 23.647C83.8286 22.8739 83.5031 21.6816 82.8521 20.0703L78.7505 9.92627H81.9243L85.4766 18.9473L88.6992 9.92627H91.8608L86.1357 25.0996ZM96.7803 22.6704V28.127H93.7285V9.92627H96.7803V10.8052C97.5534 10.0483 98.4933 9.66992 99.6001 9.66992C103.767 9.66992 105.85 11.973 105.85 16.5791C105.85 18.695 105.276 20.3348 104.129 21.4985C102.981 22.6623 101.407 23.2441 99.4048 23.2441C98.4771 23.2441 97.6022 23.0529 96.7803 22.6704ZM96.7803 13.1245V19.9971C97.3337 20.4528 97.9847 20.6807 98.7334 20.6807C100.109 20.6807 101.11 20.3429 101.736 19.6675C102.363 18.992 102.676 17.9259 102.676 16.4692C102.676 14.9963 102.379 13.9302 101.785 13.271C101.199 12.6037 100.182 12.27 98.7334 12.27C98.001 12.27 97.3499 12.5549 96.7803 13.1245ZM22.7935 46.0298C24.4943 46.6401 25.3447 47.7388 25.3447 49.3257C25.3447 50.4487 24.9134 51.3439 24.0508 52.0112C23.1882 52.6704 21.9023 53 20.1934 53H14.3462V39.9507C16.7957 39.8368 18.696 39.7798 20.0469 39.7798C21.5524 39.7798 22.7161 40.1094 23.5381 40.7686C24.36 41.4196 24.771 42.2904 24.771 43.3809C24.771 43.9342 24.596 44.4551 24.2461 44.9434C23.9043 45.4235 23.4201 45.7856 22.7935 46.0298ZM17.3003 45.0288C17.6177 45.0451 18.4681 45.0532 19.8516 45.0532C21.1862 45.0532 21.8535 44.5446 21.8535 43.5273C21.8535 43.0879 21.6867 42.738 21.353 42.4775C21.0275 42.209 20.5758 42.0747 19.998 42.0747C18.9238 42.0747 18.0246 42.1073 17.3003 42.1724V45.0288ZM17.3003 50.6196C18.3582 50.6603 19.2493 50.6807 19.9736 50.6807C21.5605 50.6807 22.354 50.1029 22.354 48.9473C22.354 48.3695 22.1261 47.9382 21.6704 47.6533C21.2147 47.3685 20.6491 47.2261 19.9736 47.2261L17.3003 47.2505V50.6196ZM47.9399 36.0811L46.646 38.7056C45.9299 37.9813 44.7946 37.6191 43.2402 37.6191C41.6777 37.6191 40.4367 38.2661 39.5171 39.5601C38.5975 40.854 38.1377 42.4165 38.1377 44.2476C38.1377 46.0786 38.5649 47.576 39.4194 48.7397C40.2739 49.8953 41.4661 50.4731 42.9961 50.4731C44.6807 50.4731 45.995 49.875 46.939 48.6787L48.4404 51.2544C47.1383 52.6216 45.2381 53.3052 42.7397 53.3052C40.2251 53.3052 38.2801 52.4832 36.9048 50.8394C35.5295 49.1873 34.8418 46.9494 34.8418 44.1255C34.8418 41.505 35.5986 39.2956 37.1123 37.4971C38.6341 35.6986 40.6117 34.7993 43.0449 34.7993C45.0632 34.7993 46.6948 35.2266 47.9399 36.0811ZM50.0273 46.4204C50.0273 44.4429 50.597 42.8234 51.7363 41.562C52.8838 40.3006 54.4056 39.6699 56.3018 39.6699C58.2874 39.6699 59.8296 40.2803 60.9282 41.501C62.0269 42.7217 62.5762 44.3615 62.5762 46.4204C62.5762 48.5607 62.0024 50.2331 60.855 51.4375C59.7157 52.6419 58.1979 53.2441 56.3018 53.2441C54.3324 53.2441 52.7943 52.6297 51.6875 51.4009C50.5807 50.1639 50.0273 48.5037 50.0273 46.4204ZM53.2012 46.4204C53.2012 49.3094 54.2347 50.7539 56.3018 50.7539C57.2376 50.7539 57.9863 50.3877 58.5479 49.6553C59.1175 48.9147 59.4023 47.8364 59.4023 46.4204C59.4023 43.5884 58.3688 42.1724 56.3018 42.1724C55.3577 42.1724 54.605 42.5426 54.0435 43.2832C53.4819 44.0238 53.2012 45.0695 53.2012 46.4204ZM72.0366 46.1763C72.7853 46.4123 73.3835 46.8029 73.8311 47.3481C74.2786 47.8853 74.5024 48.4712 74.5024 49.106C74.5024 50.465 74.006 51.5026 73.0132 52.2188C72.0285 52.9268 70.6776 53.2808 68.9604 53.2808C66.9585 53.2808 65.2902 52.7965 63.9556 51.8281L65.457 49.4233C66.4987 50.3104 67.7316 50.7539 69.1558 50.7539C70.6206 50.7539 71.353 50.2127 71.353 49.1304C71.353 47.9585 70.4863 47.3726 68.7529 47.3726C68.1019 47.3726 67.52 47.397 67.0073 47.4458V45.0532C67.3084 45.0695 67.9676 45.0776 68.9849 45.0776C70.3683 45.0776 71.0601 44.5934 71.0601 43.625C71.0601 43.1774 70.8932 42.8193 70.5596 42.5508C70.2259 42.2822 69.7498 42.1479 69.1313 42.1479C67.9757 42.1479 66.8405 42.4816 65.7256 43.1489L64.627 40.7441C66.2057 40.0117 67.7804 39.6455 69.3511 39.6455C70.7915 39.6455 71.9471 39.9954 72.8179 40.6953C73.6968 41.3952 74.1362 42.27 74.1362 43.3198C74.1362 44.7277 73.4364 45.6799 72.0366 46.1763ZM76.3701 46.4204C76.3701 44.4429 76.9398 42.8234 78.0791 41.562C79.2266 40.3006 80.7484 39.6699 82.6445 39.6699C84.6302 39.6699 86.1724 40.2803 87.271 41.501C88.3696 42.7217 88.9189 44.3615 88.9189 46.4204C88.9189 48.5607 88.3452 50.2331 87.1978 51.4375C86.0584 52.6419 84.5407 53.2441 82.6445 53.2441C80.6751 53.2441 79.137 52.6297 78.0303 51.4009C76.9235 50.1639 76.3701 48.5037 76.3701 46.4204ZM79.5439 46.4204C79.5439 49.3094 80.5775 50.7539 82.6445 50.7539C83.5804 50.7539 84.3291 50.3877 84.8906 49.6553C85.4603 48.9147 85.7451 47.8364 85.7451 46.4204C85.7451 43.5884 84.7116 42.1724 82.6445 42.1724C81.7005 42.1724 80.9478 42.5426 80.3862 43.2832C79.8247 44.0238 79.5439 45.0695 79.5439 46.4204ZM102.725 53H99.6733V42.502H94.4731V53H91.4214V39.9263H102.725V53ZM105.228 46.4204C105.228 44.4429 105.797 42.8234 106.937 41.562C108.084 40.3006 109.606 39.6699 111.502 39.6699C113.488 39.6699 115.03 40.2803 116.128 41.501C117.227 42.7217 117.776 44.3615 117.776 46.4204C117.776 48.5607 117.203 50.2331 116.055 51.4375C114.916 52.6419 113.398 53.2441 111.502 53.2441C109.533 53.2441 107.994 52.6297 106.888 51.4009C105.781 50.1639 105.228 48.5037 105.228 46.4204ZM108.401 46.4204C108.401 49.3094 109.435 50.7539 111.502 50.7539C112.438 50.7539 113.187 50.3877 113.748 49.6553C114.318 48.9147 114.603 47.8364 114.603 46.4204C114.603 43.5884 113.569 42.1724 111.502 42.1724C110.558 42.1724 109.805 42.5426 109.244 43.2832C108.682 44.0238 108.401 45.0695 108.401 46.4204ZM131.961 53H128.982V42.3311H125.76C125.695 44.154 125.487 45.8507 125.137 47.4214C124.795 48.992 124.323 50.2046 123.721 51.0591C123.119 51.9054 122.472 52.467 121.78 52.7437C121.097 53.0122 120.23 53.1465 119.18 53.1465V50.4487C119.994 50.4487 120.669 50.172 121.207 49.6187C121.744 49.0571 122.199 47.9626 122.574 46.335C122.948 44.6992 123.135 42.8356 123.135 40.7441V39.9263H131.961V53ZM138.296 44.6016C139.094 44.5365 139.985 44.5039 140.97 44.5039C142.605 44.5039 143.887 44.8823 144.815 45.6392C145.751 46.396 146.219 47.4661 146.219 48.8496C146.219 50.1191 145.8 51.1283 144.961 51.877C144.123 52.6257 142.768 53 140.896 53H135.269V39.9263H138.296V44.6016ZM138.296 50.5952C139.11 50.6278 139.891 50.644 140.64 50.644C142.308 50.644 143.143 50.0052 143.143 48.7275C143.143 48.1986 142.947 47.755 142.557 47.397C142.174 47.0308 141.548 46.8477 140.677 46.8477C140.221 46.8477 139.428 46.8721 138.296 46.9209V50.5952ZM149.771 57.5654L148.733 56.2349C150.223 55.12 150.967 54.2451 150.967 53.6104C150.967 53.3662 150.882 53.1261 150.711 52.8901C149.938 52.5158 149.551 51.9909 149.551 51.3154C149.551 50.8271 149.755 50.4243 150.162 50.1069C150.569 49.7814 151.073 49.6187 151.675 49.6187C152.237 49.6187 152.725 49.8343 153.14 50.2656C153.563 50.6888 153.775 51.1812 153.775 51.7427C153.775 52.7762 153.531 53.7161 153.042 54.5625C152.562 55.417 151.472 56.418 149.771 57.5654ZM33.084 71.1235C33.9629 71.0422 34.736 71.0015 35.4033 71.0015C37.4867 71.0015 39.1061 71.4816 40.2617 72.4419C41.4255 73.4022 42.0073 74.7816 42.0073 76.5801C42.0073 78.2321 41.4255 79.5505 40.2617 80.5352C39.1061 81.5117 37.4867 82 35.4033 82H29.9346V64.1289H40.7256V66.8755H33.084V71.1235ZM33.084 79.3511C33.7432 79.3999 34.3169 79.4243 34.8052 79.4243C36.2049 79.4243 37.2059 79.1639 37.8081 78.6431C38.4185 78.1222 38.7236 77.3735 38.7236 76.397C38.7236 75.5425 38.4469 74.8548 37.8936 74.334C37.3402 73.8132 36.3433 73.5527 34.9028 73.5527C34.3332 73.5527 33.7269 73.5853 33.084 73.6504V79.3511ZM43.9238 75.4204C43.9238 73.4429 44.4935 71.8234 45.6328 70.562C46.7803 69.3006 48.3021 68.6699 50.1982 68.6699C52.1839 68.6699 53.7261 69.2803 54.8247 70.501C55.9233 71.7217 56.4727 73.3615 56.4727 75.4204C56.4727 77.5607 55.8989 79.2331 54.7515 80.4375C53.6121 81.6419 52.0944 82.2441 50.1982 82.2441C48.2288 82.2441 46.6908 81.6297 45.584 80.4009C44.4772 79.1639 43.9238 77.5037 43.9238 75.4204ZM47.0977 75.4204C47.0977 78.3094 48.1312 79.7539 50.1982 79.7539C51.1341 79.7539 51.8828 79.3877 52.4443 78.6553C53.014 77.9147 53.2988 76.8364 53.2988 75.4204C53.2988 72.5884 52.2653 71.1724 50.1982 71.1724C49.2542 71.1724 48.5015 71.5426 47.9399 72.2832C47.3784 73.0238 47.0977 74.0695 47.0977 75.4204ZM70.6572 82H67.6787V71.3311H64.4561C64.391 73.154 64.1834 74.8507 63.8335 76.4214C63.4917 77.992 63.0197 79.2046 62.4175 80.0591C61.8153 80.9054 61.1683 81.467 60.4766 81.7437C59.793 82.0122 58.9263 82.1465 57.8765 82.1465V79.4487C58.6903 79.4487 59.3657 79.172 59.9028 78.6187C60.4399 78.0571 60.8957 76.9626 61.27 75.335C61.6444 73.6992 61.8315 71.8356 61.8315 69.7441V68.9263H70.6572V82ZM83.0474 71.502H77.0415V82H73.9653V68.9263H83.0474V71.502ZM92.813 80.7061C92.5363 81.1536 92.0399 81.5239 91.3237 81.8169C90.6076 82.1017 89.9036 82.2441 89.2119 82.2441C87.7796 82.2441 86.6688 81.8901 85.8794 81.1821C85.09 80.4741 84.6953 79.4813 84.6953 78.2036C84.6953 76.7632 85.2406 75.5954 86.3311 74.7002C87.4215 73.7969 89.0492 73.3452 91.2139 73.3452C91.5638 73.3452 91.991 73.4144 92.4956 73.5527C92.4956 71.9984 91.5272 71.2212 89.5903 71.2212C88.451 71.2212 87.4826 71.4124 86.6851 71.7949L86.0381 69.4512C87.0716 68.9303 88.3208 68.6699 89.7856 68.6699C91.8039 68.6699 93.2687 69.1379 94.1802 70.0737C95.0998 71.0015 95.5596 72.7104 95.5596 75.2007V77.9961C95.5596 79.7376 95.9095 80.8322 96.6094 81.2798C96.3734 81.703 96.1089 81.9674 95.8159 82.0732C95.5229 82.1872 95.1567 82.2441 94.7173 82.2441C94.286 82.2441 93.8953 82.0895 93.5454 81.7803C93.1955 81.4629 92.9513 81.1048 92.813 80.7061ZM92.52 75.8477C91.991 75.75 91.5964 75.7012 91.3359 75.7012C88.9352 75.7012 87.7349 76.4824 87.7349 78.0449C87.7349 79.2331 88.4103 79.8271 89.7612 79.8271C91.6004 79.8271 92.52 78.9116 92.52 77.0806V75.8477ZM101.919 81.6704V87.127H98.8677V68.9263H101.919V69.8052C102.693 69.0483 103.632 68.6699 104.739 68.6699C108.906 68.6699 110.989 70.973 110.989 75.5791C110.989 77.695 110.416 79.3348 109.268 80.4985C108.121 81.6623 106.546 82.2441 104.544 82.2441C103.616 82.2441 102.741 82.0529 101.919 81.6704ZM101.919 72.1245V78.9971C102.473 79.4528 103.124 79.6807 103.873 79.6807C105.248 79.6807 106.249 79.3429 106.875 78.6675C107.502 77.992 107.815 76.9259 107.815 75.4692C107.815 73.9963 107.518 72.9302 106.924 72.271C106.338 71.6037 105.321 71.27 103.873 71.27C103.14 71.27 102.489 71.5549 101.919 72.1245ZM125.223 82H122.171V74.1021L114.322 82.3052H113.492V68.9263H116.543V76.8242L124.393 68.6211H125.223V82ZM139.236 82H136.233V77.0439H135.428C133.141 77.0439 131.859 78.0286 131.583 79.998C131.387 81.4303 130.529 82.1465 129.007 82.1465C128.576 82.1465 128.16 82.1221 127.762 82.0732V79.5708C127.859 79.6034 128.034 79.6196 128.287 79.6196C128.653 79.6196 128.885 79.3796 128.982 78.8994C129.129 78.1995 129.446 77.5973 129.935 77.0928C130.423 76.5882 131.029 76.2424 131.753 76.0552C129.638 75.6646 128.58 74.5293 128.58 72.6494C128.58 71.5426 128.991 70.623 129.812 69.8906C130.634 69.1501 131.981 68.7798 133.853 68.7798C134.952 68.7798 136.746 68.8449 139.236 68.9751V82ZM136.233 74.7734V71.1724C135.582 71.1073 134.789 71.0747 133.853 71.0747C133.104 71.0747 132.555 71.2415 132.205 71.5752C131.855 71.9007 131.68 72.3239 131.68 72.8447C131.68 73.3981 131.912 73.8538 132.376 74.2119C132.848 74.5618 133.491 74.7409 134.305 74.749L136.233 74.7734Z" fill="black"/>
<path d="M58.7354 117.041C58.6032 117.068 58.4072 117.082 58.1475 117.082C57.5231 117.082 57.0514 116.932 56.7324 116.631C56.4134 116.33 56.1924 115.838 56.0693 115.154C55.9007 114.197 55.5931 113.509 55.1465 113.09C54.7044 112.671 54.0755 112.461 53.2598 112.461H53.1777V117H51.4141V106.992H53.1777V110.95H53.3145C54.1074 110.95 54.7249 110.777 55.167 110.431C55.609 110.08 55.8962 109.54 56.0283 108.811C56.1514 108.145 56.3519 107.664 56.6299 107.368C56.9079 107.067 57.3568 106.917 57.9766 106.917C58.2272 106.917 58.4368 106.928 58.6055 106.951V108.53C58.5599 108.521 58.4619 108.517 58.3115 108.517C58.1064 108.517 57.9606 108.564 57.874 108.66C57.792 108.756 57.7145 108.979 57.6416 109.33C57.5186 109.918 57.2542 110.424 56.8486 110.848C56.443 111.271 55.9326 111.554 55.3174 111.695C55.9691 111.887 56.4909 112.21 56.8828 112.666C57.2747 113.117 57.5505 113.751 57.71 114.566C57.7965 114.977 57.8854 115.232 57.9766 115.332C58.0723 115.428 58.2363 115.476 58.4688 115.476C58.5645 115.476 58.6533 115.466 58.7354 115.448V117.041ZM59.9043 111.907C59.9043 110.485 60.2939 109.28 61.0732 108.291C61.8571 107.302 62.9053 106.808 64.2178 106.808C65.6442 106.808 66.7402 107.252 67.5059 108.141C68.2715 109.025 68.6543 110.28 68.6543 111.907C68.6543 113.539 68.2555 114.824 67.458 115.763C66.6605 116.701 65.5326 117.171 64.0742 117.171C62.7161 117.171 61.6816 116.699 60.9707 115.756C60.2598 114.808 59.9043 113.525 59.9043 111.907ZM61.75 111.907C61.75 113.124 61.9505 114.042 62.3516 114.662C62.7526 115.277 63.3268 115.585 64.0742 115.585C64.9629 115.585 65.6396 115.275 66.1045 114.655C66.5739 114.035 66.8086 113.119 66.8086 111.907C66.8086 109.56 65.945 108.387 64.2178 108.387C63.4157 108.387 62.8027 108.703 62.3789 109.337C61.9596 109.97 61.75 110.827 61.75 111.907ZM79.0996 119.871H77.5342V117H70.9785V119.871H69.4131V115.53H70.0967C70.6436 114.824 71.1973 113.84 71.7578 112.577C72.3184 111.31 72.8424 109.449 73.3301 106.992H77.9785V115.53H79.0996V119.871ZM76.2695 115.53V108.448H74.5605C74.3281 109.866 73.9795 111.215 73.5146 112.495C73.0498 113.776 72.5417 114.787 71.9902 115.53H76.2695ZM88.998 108.558V117H87.2207V108.558H84.042V106.992H92.334V108.558H88.998ZM101.357 106.992C100.792 109.034 100.081 110.911 99.2246 112.625C98.3724 114.339 97.5521 115.512 96.7637 116.146C95.9798 116.779 94.943 117.096 93.6533 117.096V115.462C93.708 115.471 93.8151 115.476 93.9746 115.476C94.5579 115.476 95.0387 115.371 95.417 115.161C95.7952 114.951 96.1325 114.635 96.4287 114.211L92.8398 106.992H94.8154L97.4473 112.816C98.2585 111.167 98.9489 109.225 99.5186 106.992H101.357ZM104.242 113.315V117H102.465V106.992C103.773 106.942 104.468 106.917 104.55 106.917C106.108 106.917 107.257 107.159 107.995 107.642C108.738 108.125 109.109 108.883 109.109 109.918C109.109 112.215 107.756 113.363 105.049 113.363C104.844 113.363 104.575 113.347 104.242 113.315ZM104.242 108.53V111.736C104.548 111.764 104.785 111.777 104.953 111.777C105.764 111.777 106.357 111.645 106.73 111.381C107.104 111.112 107.291 110.67 107.291 110.055C107.291 109.02 106.455 108.503 104.782 108.503C104.532 108.503 104.352 108.512 104.242 108.53ZM116.588 117L115.843 114.97H112.411L111.728 117H109.738L113.744 106.849H114.517L118.543 117H116.588ZM114.12 109.918L112.917 113.609H115.323L114.12 109.918Z" fill="black"/>
<rect x="30" y="127" width="108" height="31" fill="black"/>
<path d="M36.957 149.559L38.4805 147.203C39.3867 148.164 40.3711 148.645 41.4336 148.645C43.3711 148.645 44.3398 147.734 44.3398 145.914C44.3398 145.086 44.0586 144.414 43.4961 143.898C42.9336 143.375 42.1758 143.113 41.2227 143.113H40.6836V140.605H41.1406C42.8906 140.605 43.7656 139.875 43.7656 138.414C43.7656 136.883 42.9492 136.117 41.3164 136.117C40.4727 136.117 39.6523 136.516 38.8555 137.312L37.4258 135.215C37.793 134.762 38.3672 134.367 39.1484 134.031C39.9297 133.695 40.7109 133.527 41.4922 133.527C43.2031 133.527 44.5352 133.918 45.4883 134.699C46.4492 135.48 46.9297 136.574 46.9297 137.98C46.9297 139.652 46.2109 140.926 44.7734 141.801C46.5938 142.676 47.5039 144.105 47.5039 146.09C47.5039 147.723 46.9609 148.988 45.875 149.887C44.7969 150.785 43.3047 151.234 41.3984 151.234C39.6641 151.234 38.1836 150.676 36.957 149.559ZM50.2227 141.895C50.2227 139.551 50.793 137.57 51.9336 135.953C53.082 134.336 54.6133 133.527 56.5273 133.527C60.5195 133.527 62.5156 136.441 62.5156 142.27C62.5156 144.996 61.9766 147.172 60.8984 148.797C59.8203 150.422 58.3086 151.234 56.3633 151.234C54.2695 151.234 52.7227 150.484 51.7227 148.984C50.7227 147.484 50.2227 145.121 50.2227 141.895ZM53.3867 142.105C53.3867 144.395 53.6094 146.078 54.0547 147.156C54.5 148.234 55.2383 148.773 56.2695 148.773C57.3867 148.773 58.1797 148.289 58.6484 147.32C59.1172 146.344 59.3516 144.609 59.3516 142.117C59.3516 139.797 59.125 138.195 58.6719 137.312C58.2266 136.43 57.4922 135.988 56.4688 135.988C54.4141 135.988 53.3867 138.027 53.3867 142.105ZM68.7148 151.328L67.0977 149.617C69.4727 148.305 71.1523 146.59 72.1367 144.473C71.6133 144.707 70.9453 144.824 70.1328 144.824C68.5234 144.824 67.2266 144.324 66.2422 143.324C65.2578 142.324 64.7656 140.965 64.7656 139.246C64.7656 137.543 65.2695 136.164 66.2773 135.109C67.2852 134.055 68.5508 133.527 70.0742 133.527C74.0742 133.527 76.0742 136.043 76.0742 141.074C76.0742 143.168 75.3008 145.289 73.7539 147.438C72.2148 149.578 70.5352 150.875 68.7148 151.328ZM67.8711 139.129C67.8711 140.09 68.0977 140.848 68.5508 141.402C69.0039 141.957 69.582 142.234 70.2852 142.234C72.0352 142.234 72.9102 141.258 72.9102 139.305C72.9102 137.18 72.0234 136.117 70.25 136.117C69.5234 136.117 68.9453 136.387 68.5156 136.926C68.0859 137.457 67.8711 138.191 67.8711 139.129ZM89 146.512V151H86.0703V146.512H78.2539V144.766L87.6641 133.762H89V144.098H90.7344V146.512H89ZM86.0703 138.941L81.6641 144.098H86.0703V138.941ZM98.1992 151V138.625L94.707 140.723V137.793C96.9492 136.707 98.7227 135.363 100.027 133.762H101.246V151H98.1992ZM112.262 151V138.625L108.77 140.723V137.793C111.012 136.707 112.785 135.363 114.09 133.762H115.309V151H112.262ZM124.965 151.328L123.348 149.617C125.723 148.305 127.402 146.59 128.387 144.473C127.863 144.707 127.195 144.824 126.383 144.824C124.773 144.824 123.477 144.324 122.492 143.324C121.508 142.324 121.016 140.965 121.016 139.246C121.016 137.543 121.52 136.164 122.527 135.109C123.535 134.055 124.801 133.527 126.324 133.527C130.324 133.527 132.324 136.043 132.324 141.074C132.324 143.168 131.551 145.289 130.004 147.438C128.465 149.578 126.785 150.875 124.965 151.328ZM124.121 139.129C124.121 140.09 124.348 140.848 124.801 141.402C125.254 141.957 125.832 142.234 126.535 142.234C128.285 142.234 129.16 141.258 129.16 139.305C129.16 137.18 128.273 136.117 126.5 136.117C125.773 136.117 125.195 136.387 124.766 136.926C124.336 137.457 124.121 138.191 124.121 139.129Z" fill="white"/>
</svg>
