<svg width="233" height="319" viewBox="0 0 233 319" fill="none" xmlns="http://www.w3.org/2000/svg">
<path d="M15.0645 148L9.36621 126.525H12.2812L15.5479 140.603C15.8994 142.077 16.2021 143.542 16.4561 144.997C17.0029 142.702 17.3252 141.379 17.4229 141.027L21.5098 126.525H24.9375L28.0137 137.395C28.7852 140.09 29.3418 142.624 29.6836 144.997C29.957 143.64 30.3135 142.082 30.7529 140.324L34.1221 126.525H36.9785L31.0898 148H28.3506L23.8242 131.638C23.4434 130.271 23.2188 129.431 23.1504 129.118C22.9258 130.104 22.7158 130.944 22.5205 131.638L17.9648 148H15.0645ZM39.7324 148V126.525H42.5742V135.344H53.7363V126.525H56.5781V148H53.7363V137.878H42.5742V148H39.7324ZM61.3682 148V126.525H70.8896C72.8037 126.525 74.2588 126.721 75.2549 127.111C76.251 127.492 77.0469 128.171 77.6426 129.147C78.2383 130.124 78.5361 131.203 78.5361 132.385C78.5361 133.908 78.043 135.192 77.0566 136.237C76.0703 137.282 74.5469 137.946 72.4863 138.229C73.2383 138.591 73.8096 138.947 74.2002 139.299C75.0303 140.061 75.8164 141.013 76.5586 142.155L80.2939 148H76.7197L73.8779 143.532C73.0479 142.243 72.3643 141.257 71.8271 140.573C71.29 139.89 70.8066 139.411 70.377 139.138C69.957 138.864 69.5273 138.674 69.0879 138.566C68.7656 138.498 68.2383 138.464 67.5059 138.464H64.21V148H61.3682ZM64.21 136.003H70.3184C71.6172 136.003 72.6328 135.871 73.3652 135.607C74.0977 135.334 74.6543 134.904 75.0352 134.318C75.416 133.723 75.6064 133.078 75.6064 132.385C75.6064 131.369 75.2354 130.534 74.4932 129.88C73.7607 129.226 72.5986 128.898 71.0068 128.898H64.21V136.003ZM94.459 140.969V138.903C95.5723 138.894 96.3291 138.85 96.7295 138.771C97.1396 138.693 97.5254 138.459 97.8867 138.068C98.248 137.678 98.4287 137.189 98.4287 136.604C98.4287 135.891 98.1895 135.324 97.7109 134.904C97.2422 134.475 96.6318 134.26 95.8799 134.26C94.3955 134.26 93.3555 135.134 92.7598 136.882L90.2549 136.472C91.0361 133.552 92.9209 132.092 95.9092 132.092C97.5693 132.092 98.8682 132.546 99.8057 133.454C100.753 134.362 101.227 135.446 101.227 136.706C101.227 137.976 100.611 138.986 99.3809 139.738C100.162 140.158 100.748 140.695 101.139 141.35C101.529 141.994 101.725 142.761 101.725 143.649C101.725 145.046 101.217 146.179 100.201 147.048C99.1855 147.917 97.7646 148.352 95.9385 148.352C92.3936 148.352 90.3379 146.774 89.7715 143.62L92.2471 143.093C92.4717 144.089 92.9258 144.86 93.6094 145.407C94.3027 145.954 95.0938 146.228 95.9824 146.228C96.8711 146.228 97.6084 145.979 98.1943 145.48C98.79 144.973 99.0879 144.328 99.0879 143.547C99.0879 142.941 98.9023 142.414 98.5312 141.965C98.1602 141.516 97.7646 141.237 97.3447 141.13C96.9248 141.013 96.1631 140.954 95.0596 140.954C94.9717 140.954 94.7715 140.959 94.459 140.969ZM106.192 132.443H117.032V145.832H118.717V152.409H116.549V148H104.303V152.409H102.135V145.832H103.526C105.382 143.312 106.271 138.85 106.192 132.443ZM108.39 134.626C108.194 139.675 107.413 143.41 106.046 145.832H114.41V134.626H108.39ZM120.65 140.222C120.65 137.341 121.451 135.207 123.053 133.82C124.391 132.668 126.021 132.092 127.945 132.092C130.084 132.092 131.832 132.795 133.189 134.201C134.547 135.598 135.226 137.531 135.226 140.002C135.226 142.004 134.923 143.581 134.317 144.733C133.722 145.876 132.848 146.765 131.695 147.399C130.553 148.034 129.303 148.352 127.945 148.352C125.768 148.352 124.005 147.653 122.657 146.257C121.319 144.86 120.65 142.849 120.65 140.222ZM123.36 140.222C123.36 142.214 123.795 143.708 124.664 144.704C125.533 145.69 126.627 146.184 127.945 146.184C129.254 146.184 130.343 145.686 131.212 144.689C132.081 143.693 132.516 142.175 132.516 140.134C132.516 138.21 132.076 136.755 131.197 135.769C130.328 134.772 129.244 134.274 127.945 134.274C126.627 134.274 125.533 134.768 124.664 135.754C123.795 136.74 123.36 138.229 123.36 140.222ZM138.331 153.962V132.443H140.733V134.465C141.3 133.674 141.939 133.083 142.652 132.692C143.365 132.292 144.229 132.092 145.245 132.092C146.573 132.092 147.745 132.434 148.761 133.117C149.776 133.801 150.543 134.768 151.061 136.018C151.578 137.258 151.837 138.62 151.837 140.104C151.837 141.696 151.549 143.132 150.973 144.411C150.406 145.681 149.576 146.657 148.482 147.341C147.398 148.015 146.256 148.352 145.055 148.352C144.176 148.352 143.385 148.166 142.682 147.795C141.988 147.424 141.417 146.955 140.968 146.389V153.962H138.331ZM140.719 140.31C140.719 142.312 141.124 143.791 141.935 144.748C142.745 145.705 143.727 146.184 144.879 146.184C146.051 146.184 147.052 145.69 147.882 144.704C148.722 143.708 149.142 142.17 149.142 140.09C149.142 138.107 148.731 136.623 147.911 135.637C147.101 134.65 146.129 134.157 144.996 134.157C143.873 134.157 142.877 134.685 142.008 135.739C141.148 136.784 140.719 138.308 140.719 140.31ZM154.049 140.222C154.049 137.341 154.85 135.207 156.451 133.82C157.789 132.668 159.42 132.092 161.344 132.092C163.482 132.092 165.23 132.795 166.588 134.201C167.945 135.598 168.624 137.531 168.624 140.002C168.624 142.004 168.321 143.581 167.716 144.733C167.12 145.876 166.246 146.765 165.094 147.399C163.951 148.034 162.701 148.352 161.344 148.352C159.166 148.352 157.403 147.653 156.056 146.257C154.718 144.86 154.049 142.849 154.049 140.222ZM156.759 140.222C156.759 142.214 157.193 143.708 158.062 144.704C158.932 145.69 160.025 146.184 161.344 146.184C162.652 146.184 163.741 145.686 164.61 144.689C165.479 143.693 165.914 142.175 165.914 140.134C165.914 138.21 165.475 136.755 164.596 135.769C163.727 134.772 162.643 134.274 161.344 134.274C160.025 134.274 158.932 134.768 158.062 135.754C157.193 136.74 156.759 138.229 156.759 140.222ZM171.744 132.443H177.823C179.317 132.443 180.426 132.57 181.148 132.824C181.881 133.068 182.506 133.522 183.023 134.187C183.551 134.851 183.814 135.646 183.814 136.574C183.814 137.316 183.658 137.966 183.346 138.522C183.043 139.069 182.584 139.528 181.969 139.899C182.701 140.144 183.307 140.603 183.785 141.276C184.273 141.94 184.518 142.731 184.518 143.649C184.42 145.124 183.893 146.218 182.936 146.931C181.979 147.644 180.587 148 178.761 148H171.744V132.443ZM174.381 138.991H177.193C178.316 138.991 179.088 138.933 179.508 138.815C179.928 138.698 180.304 138.464 180.636 138.112C180.968 137.751 181.134 137.321 181.134 136.823C181.134 136.003 180.841 135.432 180.255 135.109C179.679 134.787 178.688 134.626 177.281 134.626H174.381V138.991ZM174.381 145.832H177.853C179.347 145.832 180.372 145.661 180.929 145.319C181.485 144.968 181.778 144.367 181.808 143.518C181.808 143.02 181.646 142.561 181.324 142.141C181.002 141.711 180.582 141.442 180.064 141.335C179.547 141.218 178.717 141.159 177.574 141.159H174.381V145.832ZM186.334 140.222C186.334 137.341 187.135 135.207 188.736 133.82C190.074 132.668 191.705 132.092 193.629 132.092C195.768 132.092 197.516 132.795 198.873 134.201C200.23 135.598 200.909 137.531 200.909 140.002C200.909 142.004 200.606 143.581 200.001 144.733C199.405 145.876 198.531 146.765 197.379 147.399C196.236 148.034 194.986 148.352 193.629 148.352C191.451 148.352 189.688 147.653 188.341 146.257C187.003 144.86 186.334 142.849 186.334 140.222ZM189.044 140.222C189.044 142.214 189.479 143.708 190.348 144.704C191.217 145.69 192.311 146.184 193.629 146.184C194.938 146.184 196.026 145.686 196.896 144.689C197.765 143.693 198.199 142.175 198.199 140.134C198.199 138.21 197.76 136.755 196.881 135.769C196.012 134.772 194.928 134.274 193.629 134.274C192.311 134.274 191.217 134.768 190.348 135.754C189.479 136.74 189.044 138.229 189.044 140.222ZM204.029 132.443H212.979V134.626H206.666V148H204.029V132.443ZM213.316 140.222C213.316 137.341 214.117 135.207 215.719 133.82C217.057 132.668 218.688 132.092 220.611 132.092C222.75 132.092 224.498 132.795 225.855 134.201C227.213 135.598 227.892 137.531 227.892 140.002C227.892 142.004 227.589 143.581 226.983 144.733C226.388 145.876 225.514 146.765 224.361 147.399C223.219 148.034 221.969 148.352 220.611 148.352C218.434 148.352 216.671 147.653 215.323 146.257C213.985 144.86 213.316 142.849 213.316 140.222ZM216.026 140.222C216.026 142.214 216.461 143.708 217.33 144.704C218.199 145.69 219.293 146.184 220.611 146.184C221.92 146.184 223.009 145.686 223.878 144.689C224.747 143.693 225.182 142.175 225.182 140.134C225.182 138.21 224.742 136.755 223.863 135.769C222.994 134.772 221.91 134.274 220.611 134.274C219.293 134.274 218.199 134.768 217.33 135.754C216.461 136.74 216.026 138.229 216.026 140.222ZM10.0107 163.443H12.6475V166.388C12.6475 167.657 12.7207 168.58 12.8672 169.156C13.0234 169.723 13.3896 170.221 13.9658 170.65C14.542 171.07 15.2646 171.28 16.1338 171.28C17.1299 171.28 18.4189 171.017 20.001 170.489V163.443H22.6377V179H20.001V172.73C18.3799 173.238 16.8662 173.492 15.46 173.492C14.2783 173.492 13.2334 173.194 12.3252 172.599C11.4268 171.993 10.8164 171.256 10.4941 170.387C10.1719 169.518 10.0107 168.561 10.0107 167.516V163.443ZM37.2715 173.99L39.9961 174.327C39.5664 175.919 38.7705 177.154 37.6084 178.033C36.4463 178.912 34.9619 179.352 33.1553 179.352C30.8799 179.352 29.0732 178.653 27.7354 177.257C26.4072 175.851 25.7432 173.883 25.7432 171.354C25.7432 168.736 26.417 166.705 27.7646 165.26C29.1123 163.814 30.8604 163.092 33.0088 163.092C35.0889 163.092 36.7881 163.8 38.1064 165.216C39.4248 166.632 40.084 168.624 40.084 171.192C40.084 171.349 40.0791 171.583 40.0693 171.896H28.4678C28.5654 173.604 29.0488 174.913 29.918 175.821C30.7871 176.729 31.8711 177.184 33.1699 177.184C34.1367 177.184 34.9619 176.93 35.6455 176.422C36.3291 175.914 36.8711 175.104 37.2715 173.99ZM28.6143 169.728H37.3008C37.1836 168.419 36.8516 167.438 36.3047 166.783C35.4648 165.768 34.376 165.26 33.0381 165.26C31.8271 165.26 30.8066 165.665 29.9766 166.476C29.1562 167.286 28.7021 168.37 28.6143 169.728ZM43.6143 163.443H55.8604V179H53.2383V165.626H46.251V173.375C46.251 175.182 46.1924 176.373 46.0752 176.949C45.958 177.525 45.6357 178.028 45.1084 178.458C44.5811 178.888 43.8193 179.103 42.8232 179.103C42.208 179.103 41.5 179.063 40.6992 178.985V176.788H41.8564C42.4033 176.788 42.7939 176.734 43.0283 176.627C43.2627 176.51 43.4189 176.329 43.4971 176.085C43.5752 175.841 43.6143 175.045 43.6143 173.697V163.443ZM59.2148 171.222C59.2148 168.341 60.0156 166.207 61.6172 164.82C62.9551 163.668 64.5859 163.092 66.5098 163.092C68.6484 163.092 70.3965 163.795 71.7539 165.201C73.1113 166.598 73.79 168.531 73.79 171.002C73.79 173.004 73.4873 174.581 72.8818 175.733C72.2861 176.876 71.4121 177.765 70.2598 178.399C69.1172 179.034 67.8672 179.352 66.5098 179.352C64.332 179.352 62.5693 178.653 61.2217 177.257C59.8838 175.86 59.2148 173.849 59.2148 171.222ZM61.9248 171.222C61.9248 173.214 62.3594 174.708 63.2285 175.704C64.0977 176.69 65.1914 177.184 66.5098 177.184C67.8184 177.184 68.9072 176.686 69.7764 175.689C70.6455 174.693 71.0801 173.175 71.0801 171.134C71.0801 169.21 70.6406 167.755 69.7617 166.769C68.8926 165.772 67.8086 165.274 66.5098 165.274C65.1914 165.274 64.0977 165.768 63.2285 166.754C62.3594 167.74 61.9248 169.229 61.9248 171.222ZM76.9102 163.443H82.9893C84.4834 163.443 85.5918 163.57 86.3145 163.824C87.0469 164.068 87.6719 164.522 88.1895 165.187C88.7168 165.851 88.9805 166.646 88.9805 167.574C88.9805 168.316 88.8242 168.966 88.5117 169.522C88.209 170.069 87.75 170.528 87.1348 170.899C87.8672 171.144 88.4727 171.603 88.9512 172.276C89.4395 172.94 89.6836 173.731 89.6836 174.649C89.5859 176.124 89.0586 177.218 88.1016 177.931C87.1445 178.644 85.7529 179 83.9268 179H76.9102V163.443ZM79.5469 169.991H82.3594C83.4824 169.991 84.2539 169.933 84.6738 169.815C85.0938 169.698 85.4697 169.464 85.8018 169.112C86.1338 168.751 86.2998 168.321 86.2998 167.823C86.2998 167.003 86.0068 166.432 85.4209 166.109C84.8447 165.787 83.8535 165.626 82.4473 165.626H79.5469V169.991ZM79.5469 176.832H83.0186C84.5127 176.832 85.5381 176.661 86.0947 176.319C86.6514 175.968 86.9443 175.367 86.9736 174.518C86.9736 174.02 86.8125 173.561 86.4902 173.141C86.168 172.711 85.748 172.442 85.2305 172.335C84.7129 172.218 83.8828 172.159 82.7402 172.159H79.5469V176.832ZM103.131 173.99L105.855 174.327C105.426 175.919 104.63 177.154 103.468 178.033C102.306 178.912 100.821 179.352 99.0146 179.352C96.7393 179.352 94.9326 178.653 93.5947 177.257C92.2666 175.851 91.6025 173.883 91.6025 171.354C91.6025 168.736 92.2764 166.705 93.624 165.26C94.9717 163.814 96.7197 163.092 98.8682 163.092C100.948 163.092 102.647 163.8 103.966 165.216C105.284 166.632 105.943 168.624 105.943 171.192C105.943 171.349 105.938 171.583 105.929 171.896H94.3271C94.4248 173.604 94.9082 174.913 95.7773 175.821C96.6465 176.729 97.7305 177.184 99.0293 177.184C99.9961 177.184 100.821 176.93 101.505 176.422C102.188 175.914 102.73 175.104 103.131 173.99ZM94.4736 169.728H103.16C103.043 168.419 102.711 167.438 102.164 166.783C101.324 165.768 100.235 165.26 98.8975 165.26C97.6865 165.26 96.666 165.665 95.8359 166.476C95.0156 167.286 94.5615 168.37 94.4736 169.728ZM109.166 163.443H111.803V170.167C112.643 170.167 113.229 170.006 113.561 169.684C113.902 169.361 114.4 168.424 115.055 166.871C115.572 165.641 115.992 164.83 116.314 164.439C116.637 164.049 117.008 163.785 117.428 163.648C117.848 163.512 118.521 163.443 119.449 163.443H119.977V165.626L119.244 165.611C118.551 165.611 118.106 165.714 117.911 165.919C117.706 166.134 117.394 166.773 116.974 167.838C116.573 168.854 116.207 169.557 115.875 169.947C115.543 170.338 115.03 170.694 114.337 171.017C115.47 171.319 116.583 172.374 117.677 174.181L120.562 179H117.662L114.85 174.181C114.273 173.214 113.771 172.579 113.341 172.276C112.911 171.964 112.398 171.808 111.803 171.808V179H109.166V163.443ZM133.131 177.081C132.154 177.911 131.212 178.497 130.304 178.839C129.405 179.181 128.438 179.352 127.403 179.352C125.694 179.352 124.381 178.937 123.463 178.106C122.545 177.267 122.086 176.197 122.086 174.898C122.086 174.137 122.257 173.443 122.599 172.818C122.95 172.184 123.404 171.676 123.961 171.295C124.527 170.914 125.162 170.626 125.865 170.431C126.383 170.294 127.164 170.162 128.209 170.035C130.338 169.781 131.905 169.479 132.911 169.127C132.921 168.766 132.926 168.536 132.926 168.438C132.926 167.364 132.677 166.607 132.179 166.168C131.505 165.572 130.504 165.274 129.176 165.274C127.936 165.274 127.018 165.494 126.422 165.934C125.836 166.363 125.401 167.13 125.118 168.233L122.54 167.882C122.774 166.778 123.16 165.89 123.697 165.216C124.234 164.532 125.011 164.01 126.026 163.648C127.042 163.277 128.219 163.092 129.557 163.092C130.885 163.092 131.964 163.248 132.794 163.561C133.624 163.873 134.234 164.269 134.625 164.747C135.016 165.216 135.289 165.812 135.445 166.534C135.533 166.983 135.577 167.794 135.577 168.966V172.481C135.577 174.933 135.631 176.485 135.738 177.14C135.855 177.784 136.08 178.404 136.412 179H133.658C133.385 178.453 133.209 177.813 133.131 177.081ZM132.911 171.192C131.954 171.583 130.519 171.915 128.604 172.188C127.521 172.345 126.754 172.521 126.305 172.716C125.855 172.911 125.509 173.199 125.265 173.58C125.021 173.951 124.898 174.366 124.898 174.825C124.898 175.528 125.162 176.114 125.689 176.583C126.227 177.052 127.008 177.286 128.033 177.286C129.049 177.286 129.952 177.066 130.743 176.627C131.534 176.178 132.115 175.567 132.486 174.796C132.77 174.2 132.911 173.321 132.911 172.159V171.192Z" fill="black"/>
<path d="M9.9668 203.027C9.9668 200.651 10.6048 198.792 11.8809 197.451C13.1569 196.104 14.804 195.43 16.8223 195.43C18.1439 195.43 19.3353 195.745 20.3965 196.377C21.4577 197.008 22.265 197.891 22.8184 199.023C23.3783 200.15 23.6582 201.429 23.6582 202.861C23.6582 204.313 23.3652 205.612 22.7793 206.758C22.1934 207.904 21.3633 208.773 20.2891 209.365C19.2148 209.951 18.056 210.244 16.8125 210.244C15.4648 210.244 14.2604 209.919 13.1992 209.268C12.138 208.617 11.334 207.728 10.7871 206.602C10.2402 205.475 9.9668 204.284 9.9668 203.027ZM11.9199 203.057C11.9199 204.782 12.3822 206.143 13.3066 207.139C14.2376 208.128 15.403 208.623 16.8027 208.623C18.2285 208.623 19.4004 208.122 20.3184 207.119C21.2428 206.117 21.7051 204.694 21.7051 202.852C21.7051 201.686 21.5065 200.671 21.1094 199.805C20.7188 198.932 20.1426 198.258 19.3809 197.783C18.6257 197.301 17.776 197.061 16.832 197.061C15.4909 197.061 14.3353 197.523 13.3652 198.447C12.4017 199.365 11.9199 200.902 11.9199 203.057ZM26.8223 199.629H34.0488V208.555H35.1719V212.939H33.7266V210H25.5625V212.939H24.1172V208.555H25.0449C26.2819 206.875 26.8743 203.9 26.8223 199.629ZM28.2871 201.084C28.1569 204.45 27.6361 206.94 26.7246 208.555H32.3008V201.084H28.2871ZM37.1152 199.629H38.873V207.539L43.7461 199.629H45.6406V210H43.8828V202.139L39.0098 210H37.1152V199.629ZM48.2969 199.629H50.0547V203.945H54.9277V199.629H56.6855V210H54.9277V205.4H50.0547V210H48.2969V199.629ZM64.9082 199.629H66.666V207.539L71.5391 199.629H73.4336V210H71.6758V202.139L66.8027 210H64.9082V199.629ZM78.375 205.312V203.936C79.1172 203.929 79.6217 203.9 79.8887 203.848C80.1621 203.796 80.4193 203.639 80.6602 203.379C80.901 203.118 81.0215 202.793 81.0215 202.402C81.0215 201.927 80.862 201.549 80.543 201.27C80.2305 200.983 79.8236 200.84 79.3223 200.84C78.3327 200.84 77.6393 201.423 77.2422 202.588L75.5723 202.314C76.0931 200.368 77.3496 199.395 79.3418 199.395C80.4486 199.395 81.3145 199.697 81.9395 200.303C82.571 200.908 82.8867 201.631 82.8867 202.471C82.8867 203.317 82.4766 203.991 81.6562 204.492C82.1771 204.772 82.5677 205.13 82.8281 205.566C83.0885 205.996 83.2188 206.507 83.2188 207.1C83.2188 208.031 82.8802 208.786 82.2031 209.365C81.526 209.945 80.5788 210.234 79.3613 210.234C76.998 210.234 75.6276 209.183 75.25 207.08L76.9004 206.729C77.0501 207.393 77.3529 207.907 77.8086 208.271C78.2708 208.636 78.7982 208.818 79.3906 208.818C79.9831 208.818 80.4746 208.652 80.8652 208.32C81.2624 207.982 81.4609 207.552 81.4609 207.031C81.4609 206.628 81.3372 206.276 81.0898 205.977C80.8424 205.677 80.5788 205.492 80.2988 205.42C80.0189 205.342 79.5111 205.303 78.7754 205.303C78.7168 205.303 78.5833 205.306 78.375 205.312ZM90.8359 199.629H94.8887C95.8848 199.629 96.6237 199.714 97.1055 199.883C97.5938 200.046 98.0104 200.348 98.3555 200.791C98.707 201.234 98.8828 201.764 98.8828 202.383C98.8828 202.878 98.7786 203.311 98.5703 203.682C98.3685 204.046 98.0625 204.352 97.6523 204.6C98.1406 204.762 98.5443 205.068 98.8633 205.518C99.1888 205.96 99.3516 206.488 99.3516 207.1C99.2865 208.083 98.9349 208.812 98.2969 209.287C97.6589 209.762 96.7311 210 95.5137 210H90.8359V199.629ZM92.5938 203.994H94.4688C95.2174 203.994 95.7318 203.955 96.0117 203.877C96.2917 203.799 96.5423 203.643 96.7637 203.408C96.985 203.167 97.0957 202.881 97.0957 202.549C97.0957 202.002 96.9004 201.621 96.5098 201.406C96.1257 201.191 95.4648 201.084 94.5273 201.084H92.5938V203.994ZM92.5938 208.555H94.9082C95.9043 208.555 96.5879 208.441 96.959 208.213C97.3301 207.979 97.5254 207.578 97.5449 207.012C97.5449 206.68 97.4375 206.374 97.2227 206.094C97.0078 205.807 96.7279 205.628 96.3828 205.557C96.0378 205.479 95.4844 205.439 94.7227 205.439H92.5938V208.555ZM108.316 206.66L110.133 206.885C109.846 207.946 109.316 208.77 108.541 209.355C107.766 209.941 106.777 210.234 105.572 210.234C104.055 210.234 102.851 209.769 101.959 208.838C101.074 207.9 100.631 206.589 100.631 204.902C100.631 203.158 101.08 201.803 101.979 200.84C102.877 199.876 104.042 199.395 105.475 199.395C106.861 199.395 107.994 199.867 108.873 200.811C109.752 201.755 110.191 203.083 110.191 204.795C110.191 204.899 110.188 205.055 110.182 205.264H102.447C102.512 206.403 102.835 207.275 103.414 207.881C103.993 208.486 104.716 208.789 105.582 208.789C106.227 208.789 106.777 208.62 107.232 208.281C107.688 207.943 108.049 207.402 108.316 206.66ZM102.545 203.818H108.336C108.258 202.946 108.036 202.292 107.672 201.855C107.112 201.178 106.386 200.84 105.494 200.84C104.687 200.84 104.007 201.11 103.453 201.65C102.906 202.191 102.604 202.913 102.545 203.818ZM119.117 206.201L120.846 206.426C120.657 207.617 120.172 208.551 119.391 209.229C118.616 209.899 117.662 210.234 116.529 210.234C115.11 210.234 113.967 209.772 113.102 208.848C112.242 207.917 111.812 206.585 111.812 204.854C111.812 203.734 111.998 202.754 112.369 201.914C112.74 201.074 113.303 200.446 114.059 200.029C114.82 199.606 115.647 199.395 116.539 199.395C117.665 199.395 118.587 199.681 119.303 200.254C120.019 200.82 120.478 201.628 120.68 202.676L118.971 202.939C118.808 202.243 118.518 201.719 118.102 201.367C117.691 201.016 117.193 200.84 116.607 200.84C115.722 200.84 115.003 201.159 114.449 201.797C113.896 202.428 113.619 203.431 113.619 204.805C113.619 206.198 113.886 207.21 114.42 207.842C114.954 208.473 115.65 208.789 116.51 208.789C117.2 208.789 117.776 208.577 118.238 208.154C118.701 207.731 118.993 207.08 119.117 206.201ZM122.32 199.629H124.078V203.682H126.305C127.757 203.682 128.873 203.965 129.654 204.531C130.442 205.091 130.836 205.866 130.836 206.855C130.836 207.721 130.507 208.464 129.85 209.082C129.199 209.694 128.154 210 126.715 210H122.32V199.629ZM124.078 208.555H125.924C127.037 208.555 127.831 208.418 128.307 208.145C128.782 207.871 129.02 207.445 129.02 206.865C129.02 206.416 128.844 206.016 128.492 205.664C128.141 205.312 127.363 205.137 126.158 205.137H124.078V208.555ZM132.828 199.629H135.562L138.287 207.93L141.314 199.629H143.844V210H142.086V201.65L139.02 210H137.447L134.547 201.25V210H132.828V199.629ZM153.297 208.721C152.646 209.274 152.018 209.665 151.412 209.893C150.813 210.12 150.169 210.234 149.479 210.234C148.339 210.234 147.464 209.958 146.852 209.404C146.24 208.844 145.934 208.132 145.934 207.266C145.934 206.758 146.048 206.296 146.275 205.879C146.51 205.456 146.812 205.117 147.184 204.863C147.561 204.609 147.984 204.417 148.453 204.287C148.798 204.196 149.319 204.108 150.016 204.023C151.435 203.854 152.48 203.652 153.15 203.418C153.157 203.177 153.16 203.024 153.16 202.959C153.16 202.243 152.994 201.738 152.662 201.445C152.213 201.048 151.546 200.85 150.66 200.85C149.833 200.85 149.221 200.996 148.824 201.289C148.434 201.576 148.144 202.087 147.955 202.822L146.236 202.588C146.393 201.852 146.65 201.26 147.008 200.811C147.366 200.355 147.883 200.007 148.561 199.766C149.238 199.518 150.022 199.395 150.914 199.395C151.799 199.395 152.519 199.499 153.072 199.707C153.626 199.915 154.033 200.179 154.293 200.498C154.553 200.811 154.736 201.208 154.84 201.689C154.898 201.989 154.928 202.529 154.928 203.311V205.654C154.928 207.288 154.964 208.324 155.035 208.76C155.113 209.189 155.263 209.603 155.484 210H153.648C153.466 209.635 153.349 209.209 153.297 208.721ZM153.15 204.795C152.512 205.055 151.555 205.277 150.279 205.459C149.557 205.563 149.046 205.68 148.746 205.811C148.447 205.941 148.215 206.133 148.053 206.387C147.89 206.634 147.809 206.911 147.809 207.217C147.809 207.686 147.984 208.076 148.336 208.389C148.694 208.701 149.215 208.857 149.898 208.857C150.576 208.857 151.178 208.711 151.705 208.418C152.232 208.118 152.62 207.712 152.867 207.197C153.056 206.8 153.15 206.214 153.15 205.439V204.795ZM10.3281 224.629H12.0859V228.945H16.959V224.629H18.7168V235H16.959V230.4H12.0859V235H10.3281V224.629ZM28.1406 233.721C27.4896 234.274 26.8613 234.665 26.2559 234.893C25.6569 235.12 25.0124 235.234 24.3223 235.234C23.1829 235.234 22.3073 234.958 21.6953 234.404C21.0833 233.844 20.7773 233.132 20.7773 232.266C20.7773 231.758 20.8913 231.296 21.1191 230.879C21.3535 230.456 21.6562 230.117 22.0273 229.863C22.4049 229.609 22.8281 229.417 23.2969 229.287C23.6419 229.196 24.1628 229.108 24.8594 229.023C26.2786 228.854 27.3236 228.652 27.9941 228.418C28.0007 228.177 28.0039 228.024 28.0039 227.959C28.0039 227.243 27.8379 226.738 27.5059 226.445C27.0566 226.048 26.3893 225.85 25.5039 225.85C24.6771 225.85 24.0651 225.996 23.668 226.289C23.2773 226.576 22.9876 227.087 22.7988 227.822L21.0801 227.588C21.2363 226.852 21.4935 226.26 21.8516 225.811C22.2096 225.355 22.7272 225.007 23.4043 224.766C24.0814 224.518 24.8659 224.395 25.7578 224.395C26.6432 224.395 27.3626 224.499 27.916 224.707C28.4694 224.915 28.8763 225.179 29.1367 225.498C29.3971 225.811 29.5794 226.208 29.6836 226.689C29.7422 226.989 29.7715 227.529 29.7715 228.311V230.654C29.7715 232.288 29.8073 233.324 29.8789 233.76C29.957 234.189 30.1068 234.603 30.3281 235H28.4922C28.3099 234.635 28.1927 234.209 28.1406 233.721ZM27.9941 229.795C27.3561 230.055 26.3991 230.277 25.123 230.459C24.4004 230.563 23.8893 230.68 23.5898 230.811C23.2904 230.941 23.0592 231.133 22.8965 231.387C22.7337 231.634 22.6523 231.911 22.6523 232.217C22.6523 232.686 22.8281 233.076 23.1797 233.389C23.5378 233.701 24.0586 233.857 24.7422 233.857C25.4193 233.857 26.0215 233.711 26.5488 233.418C27.0762 233.118 27.4635 232.712 27.7109 232.197C27.8997 231.8 27.9941 231.214 27.9941 230.439V229.795ZM33.8926 224.629H41.1191V233.555H42.2422V237.939H40.7969V235H32.6328V237.939H31.1875V233.555H32.1152C33.3522 231.875 33.9447 228.9 33.8926 224.629ZM35.3574 226.084C35.2272 229.45 34.7064 231.94 33.7949 233.555H39.3711V226.084H35.3574ZM51.2852 231.66L53.1016 231.885C52.8151 232.946 52.2845 233.77 51.5098 234.355C50.735 234.941 49.7454 235.234 48.541 235.234C47.0241 235.234 45.8197 234.769 44.9277 233.838C44.0423 232.9 43.5996 231.589 43.5996 229.902C43.5996 228.158 44.0488 226.803 44.9473 225.84C45.8457 224.876 47.0111 224.395 48.4434 224.395C49.8301 224.395 50.9629 224.867 51.8418 225.811C52.7207 226.755 53.1602 228.083 53.1602 229.795C53.1602 229.899 53.1569 230.055 53.1504 230.264H45.416C45.4811 231.403 45.8034 232.275 46.3828 232.881C46.9622 233.486 47.6849 233.789 48.5508 233.789C49.1953 233.789 49.7454 233.62 50.2012 233.281C50.6569 232.943 51.0182 232.402 51.2852 231.66ZM45.5137 228.818H51.3047C51.2266 227.946 51.0052 227.292 50.6406 226.855C50.0807 226.178 49.3548 225.84 48.4629 225.84C47.6556 225.84 46.9753 226.11 46.4219 226.65C45.875 227.191 45.5723 227.913 45.5137 228.818ZM61.3535 224.629V229.111C61.9134 229.111 62.3073 229.004 62.5352 228.789C62.763 228.574 63.0951 227.949 63.5312 226.914C63.9414 225.931 64.3092 225.303 64.6348 225.029C64.9538 224.762 65.4616 224.629 66.1582 224.629H66.8027V226.084L66.3242 226.074C65.8555 226.074 65.556 226.143 65.4258 226.279C65.2891 226.423 65.0807 226.849 64.8008 227.559C64.5404 228.236 64.2995 228.704 64.0781 228.965C63.8568 229.225 63.5117 229.463 63.043 229.678C63.8047 229.88 64.5469 230.583 65.2695 231.787L67.2031 235H65.2695L63.3848 231.787C63.0007 231.136 62.6654 230.71 62.3789 230.508C62.0924 230.306 61.7507 230.205 61.3535 230.205V235H59.5566V230.205C59.166 230.205 58.8275 230.306 58.541 230.508C58.2546 230.703 57.9193 231.13 57.5352 231.787L55.6504 235H53.7168L55.6406 231.787C56.3698 230.583 57.1152 229.88 57.877 229.678C57.3561 229.437 56.9915 229.176 56.7832 228.896C56.5749 228.61 56.2624 227.933 55.8457 226.865C55.7025 226.507 55.5495 226.286 55.3867 226.201C55.2174 226.117 54.9668 226.074 54.6348 226.074C54.5501 226.074 54.3776 226.077 54.1172 226.084V224.629H54.3613C55.0384 224.629 55.5137 224.671 55.7871 224.756C56.0671 224.834 56.3145 225.007 56.5293 225.273C56.7507 225.534 57.0371 226.081 57.3887 226.914C57.8184 227.936 58.1439 228.558 58.3652 228.779C58.5931 229.001 58.9902 229.111 59.5566 229.111V224.629H61.3535ZM68.4727 224.629H70.2305V228.945H75.1035V224.629H76.8613V235H75.1035V230.4H70.2305V235H68.4727V224.629ZM89.3906 224.629H91.1484V235H89.3906V224.629ZM79.5566 224.629H81.3145V228.682H83.541C84.9928 228.682 86.1094 228.965 86.8906 229.531C87.6784 230.091 88.0723 230.866 88.0723 231.855C88.0723 232.721 87.7435 233.464 87.0859 234.082C86.4349 234.694 85.39 235 83.9512 235H79.5566V224.629ZM81.3145 233.555H83.1602C84.2734 233.555 85.0677 233.418 85.543 233.145C86.0182 232.871 86.2559 232.445 86.2559 231.865C86.2559 231.416 86.0801 231.016 85.7285 230.664C85.377 230.312 84.599 230.137 83.3945 230.137H81.3145V233.555ZM92.7207 235L96.5098 229.609L93.0039 224.629H95.2012L96.793 227.061C97.0924 227.523 97.3333 227.91 97.5156 228.223C97.8021 227.793 98.0658 227.412 98.3066 227.08L100.055 224.629H102.154L98.5703 229.512L102.428 235H100.27L98.1406 231.777L97.5742 230.908L94.8496 235H92.7207ZM108.805 229.814C108.805 227.894 109.339 226.471 110.406 225.547C111.298 224.779 112.385 224.395 113.668 224.395C115.094 224.395 116.259 224.863 117.164 225.801C118.069 226.732 118.521 228.021 118.521 229.668C118.521 231.003 118.32 232.054 117.916 232.822C117.519 233.584 116.936 234.176 116.168 234.6C115.406 235.023 114.573 235.234 113.668 235.234C112.216 235.234 111.041 234.769 110.143 233.838C109.251 232.907 108.805 231.566 108.805 229.814ZM110.611 229.814C110.611 231.143 110.901 232.139 111.48 232.803C112.06 233.46 112.789 233.789 113.668 233.789C114.54 233.789 115.266 233.457 115.846 232.793C116.425 232.129 116.715 231.117 116.715 229.756C116.715 228.473 116.422 227.503 115.836 226.846C115.257 226.182 114.534 225.85 113.668 225.85C112.789 225.85 112.06 226.178 111.48 226.836C110.901 227.493 110.611 228.486 110.611 229.814ZM120.582 224.629H122.34V229.111C122.9 229.111 123.29 229.004 123.512 228.789C123.74 228.574 124.072 227.949 124.508 226.914C124.853 226.094 125.133 225.553 125.348 225.293C125.562 225.033 125.81 224.857 126.09 224.766C126.37 224.674 126.819 224.629 127.438 224.629H127.789V226.084L127.301 226.074C126.839 226.074 126.542 226.143 126.412 226.279C126.275 226.423 126.067 226.849 125.787 227.559C125.52 228.236 125.276 228.704 125.055 228.965C124.833 229.225 124.492 229.463 124.029 229.678C124.785 229.88 125.527 230.583 126.256 231.787L128.18 235H126.246L124.371 231.787C123.987 231.143 123.652 230.719 123.365 230.518C123.079 230.309 122.737 230.205 122.34 230.205V235H120.582V224.629ZM136.559 233.721C135.908 234.274 135.279 234.665 134.674 234.893C134.075 235.12 133.43 235.234 132.74 235.234C131.601 235.234 130.725 234.958 130.113 234.404C129.501 233.844 129.195 233.132 129.195 232.266C129.195 231.758 129.309 231.296 129.537 230.879C129.771 230.456 130.074 230.117 130.445 229.863C130.823 229.609 131.246 229.417 131.715 229.287C132.06 229.196 132.581 229.108 133.277 229.023C134.697 228.854 135.742 228.652 136.412 228.418C136.419 228.177 136.422 228.024 136.422 227.959C136.422 227.243 136.256 226.738 135.924 226.445C135.475 226.048 134.807 225.85 133.922 225.85C133.095 225.85 132.483 225.996 132.086 226.289C131.695 226.576 131.406 227.087 131.217 227.822L129.498 227.588C129.654 226.852 129.911 226.26 130.27 225.811C130.628 225.355 131.145 225.007 131.822 224.766C132.499 224.518 133.284 224.395 134.176 224.395C135.061 224.395 135.781 224.499 136.334 224.707C136.887 224.915 137.294 225.179 137.555 225.498C137.815 225.811 137.997 226.208 138.102 226.689C138.16 226.989 138.189 227.529 138.189 228.311V230.654C138.189 232.288 138.225 233.324 138.297 233.76C138.375 234.189 138.525 234.603 138.746 235H136.91C136.728 234.635 136.611 234.209 136.559 233.721ZM136.412 229.795C135.774 230.055 134.817 230.277 133.541 230.459C132.818 230.563 132.307 230.68 132.008 230.811C131.708 230.941 131.477 231.133 131.314 231.387C131.152 231.634 131.07 231.911 131.07 232.217C131.07 232.686 131.246 233.076 131.598 233.389C131.956 233.701 132.477 233.857 133.16 233.857C133.837 233.857 134.439 233.711 134.967 233.418C135.494 233.118 135.882 232.712 136.129 232.197C136.318 231.8 136.412 231.214 136.412 230.439V229.795ZM142.984 230.312V228.936C143.727 228.929 144.231 228.9 144.498 228.848C144.771 228.796 145.029 228.639 145.27 228.379C145.51 228.118 145.631 227.793 145.631 227.402C145.631 226.927 145.471 226.549 145.152 226.27C144.84 225.983 144.433 225.84 143.932 225.84C142.942 225.84 142.249 226.423 141.852 227.588L140.182 227.314C140.702 225.368 141.959 224.395 143.951 224.395C145.058 224.395 145.924 224.697 146.549 225.303C147.18 225.908 147.496 226.631 147.496 227.471C147.496 228.317 147.086 228.991 146.266 229.492C146.786 229.772 147.177 230.13 147.438 230.566C147.698 230.996 147.828 231.507 147.828 232.1C147.828 233.031 147.49 233.786 146.812 234.365C146.135 234.945 145.188 235.234 143.971 235.234C141.607 235.234 140.237 234.183 139.859 232.08L141.51 231.729C141.66 232.393 141.962 232.907 142.418 233.271C142.88 233.636 143.408 233.818 144 233.818C144.592 233.818 145.084 233.652 145.475 233.32C145.872 232.982 146.07 232.552 146.07 232.031C146.07 231.628 145.947 231.276 145.699 230.977C145.452 230.677 145.188 230.492 144.908 230.42C144.628 230.342 144.12 230.303 143.385 230.303C143.326 230.303 143.193 230.306 142.984 230.312ZM156.637 233.721C155.986 234.274 155.357 234.665 154.752 234.893C154.153 235.12 153.508 235.234 152.818 235.234C151.679 235.234 150.803 234.958 150.191 234.404C149.579 233.844 149.273 233.132 149.273 232.266C149.273 231.758 149.387 231.296 149.615 230.879C149.85 230.456 150.152 230.117 150.523 229.863C150.901 229.609 151.324 229.417 151.793 229.287C152.138 229.196 152.659 229.108 153.355 229.023C154.775 228.854 155.82 228.652 156.49 228.418C156.497 228.177 156.5 228.024 156.5 227.959C156.5 227.243 156.334 226.738 156.002 226.445C155.553 226.048 154.885 225.85 154 225.85C153.173 225.85 152.561 225.996 152.164 226.289C151.773 226.576 151.484 227.087 151.295 227.822L149.576 227.588C149.732 226.852 149.99 226.26 150.348 225.811C150.706 225.355 151.223 225.007 151.9 224.766C152.577 224.518 153.362 224.395 154.254 224.395C155.139 224.395 155.859 224.499 156.412 224.707C156.965 224.915 157.372 225.179 157.633 225.498C157.893 225.811 158.076 226.208 158.18 226.689C158.238 226.989 158.268 227.529 158.268 228.311V230.654C158.268 232.288 158.303 233.324 158.375 233.76C158.453 234.189 158.603 234.603 158.824 235H156.988C156.806 234.635 156.689 234.209 156.637 233.721ZM156.49 229.795C155.852 230.055 154.895 230.277 153.619 230.459C152.896 230.563 152.385 230.68 152.086 230.811C151.786 230.941 151.555 231.133 151.393 231.387C151.23 231.634 151.148 231.911 151.148 232.217C151.148 232.686 151.324 233.076 151.676 233.389C152.034 233.701 152.555 233.857 153.238 233.857C153.915 233.857 154.518 233.711 155.045 233.418C155.572 233.118 155.96 232.712 156.207 232.197C156.396 231.8 156.49 231.214 156.49 230.439V229.795ZM159.605 224.629H168.033V226.084H164.693V235H162.945V226.084H159.605V224.629ZM176.578 231.66L178.395 231.885C178.108 232.946 177.577 233.77 176.803 234.355C176.028 234.941 175.038 235.234 173.834 235.234C172.317 235.234 171.113 234.769 170.221 233.838C169.335 232.9 168.893 231.589 168.893 229.902C168.893 228.158 169.342 226.803 170.24 225.84C171.139 224.876 172.304 224.395 173.736 224.395C175.123 224.395 176.256 224.867 177.135 225.811C178.014 226.755 178.453 228.083 178.453 229.795C178.453 229.899 178.45 230.055 178.443 230.264H170.709C170.774 231.403 171.096 232.275 171.676 232.881C172.255 233.486 172.978 233.789 173.844 233.789C174.488 233.789 175.038 233.62 175.494 233.281C175.95 232.943 176.311 232.402 176.578 231.66ZM170.807 228.818H176.598C176.52 227.946 176.298 227.292 175.934 226.855C175.374 226.178 174.648 225.84 173.756 225.84C172.949 225.84 172.268 226.11 171.715 226.65C171.168 227.191 170.865 227.913 170.807 228.818ZM180.807 224.629H188.971V235H187.223V226.084H182.564V231.25C182.564 232.454 182.525 233.249 182.447 233.633C182.369 234.017 182.154 234.352 181.803 234.639C181.451 234.925 180.943 235.068 180.279 235.068C179.869 235.068 179.397 235.042 178.863 234.99V233.525H179.635C179.999 233.525 180.26 233.49 180.416 233.418C180.572 233.34 180.676 233.219 180.729 233.057C180.781 232.894 180.807 232.363 180.807 231.465V224.629ZM198.727 231.66L200.543 231.885C200.257 232.946 199.726 233.77 198.951 234.355C198.176 234.941 197.187 235.234 195.982 235.234C194.465 235.234 193.261 234.769 192.369 233.838C191.484 232.9 191.041 231.589 191.041 229.902C191.041 228.158 191.49 226.803 192.389 225.84C193.287 224.876 194.452 224.395 195.885 224.395C197.271 224.395 198.404 224.867 199.283 225.811C200.162 226.755 200.602 228.083 200.602 229.795C200.602 229.899 200.598 230.055 200.592 230.264H192.857C192.923 231.403 193.245 232.275 193.824 232.881C194.404 233.486 195.126 233.789 195.992 233.789C196.637 233.789 197.187 233.62 197.643 233.281C198.098 232.943 198.46 232.402 198.727 231.66ZM192.955 228.818H198.746C198.668 227.946 198.447 227.292 198.082 226.855C197.522 226.178 196.796 225.84 195.904 225.84C195.097 225.84 194.417 226.11 193.863 226.65C193.316 227.191 193.014 227.913 192.955 228.818ZM202.76 224.629H204.518V232.539L209.391 224.629H211.285V235H209.527V227.139L204.654 235H202.76V224.629ZM208.863 220.703H210.064C209.967 221.517 209.667 222.142 209.166 222.578C208.671 223.014 208.01 223.232 207.184 223.232C206.35 223.232 205.683 223.018 205.182 222.588C204.687 222.152 204.391 221.523 204.293 220.703H205.494C205.585 221.146 205.764 221.478 206.031 221.699C206.305 221.914 206.669 222.021 207.125 222.021C207.652 222.021 208.049 221.917 208.316 221.709C208.59 221.494 208.772 221.159 208.863 220.703ZM12.6133 256.312V254.936C13.3555 254.929 13.86 254.9 14.127 254.848C14.4004 254.796 14.6576 254.639 14.8984 254.379C15.1393 254.118 15.2598 253.793 15.2598 253.402C15.2598 252.927 15.1003 252.549 14.7812 252.27C14.4688 251.983 14.0618 251.84 13.5605 251.84C12.571 251.84 11.8776 252.423 11.4805 253.588L9.81055 253.314C10.3314 251.368 11.5879 250.395 13.5801 250.395C14.6868 250.395 15.5527 250.697 16.1777 251.303C16.8092 251.908 17.125 252.631 17.125 253.471C17.125 254.317 16.7148 254.991 15.8945 255.492C16.4154 255.772 16.806 256.13 17.0664 256.566C17.3268 256.996 17.457 257.507 17.457 258.1C17.457 259.031 17.1185 259.786 16.4414 260.365C15.7643 260.945 14.8171 261.234 13.5996 261.234C11.2363 261.234 9.86589 260.183 9.48828 258.08L11.1387 257.729C11.2884 258.393 11.5911 258.907 12.0469 259.271C12.5091 259.636 13.0365 259.818 13.6289 259.818C14.2214 259.818 14.7129 259.652 15.1035 259.32C15.5007 258.982 15.6992 258.552 15.6992 258.031C15.6992 257.628 15.5755 257.276 15.3281 256.977C15.0807 256.677 14.8171 256.492 14.5371 256.42C14.2572 256.342 13.7493 256.303 13.0137 256.303C12.9551 256.303 12.8216 256.306 12.6133 256.312ZM20.4355 250.629H27.6621V259.555H28.7852V263.939H27.3398V261H19.1758V263.939H17.7305V259.555H18.6582C19.8952 257.875 20.4876 254.9 20.4355 250.629ZM21.9004 252.084C21.7702 255.45 21.2493 257.94 20.3379 259.555H25.9141V252.084H21.9004ZM30.0742 255.814C30.0742 253.894 30.6081 252.471 31.6758 251.547C32.5677 250.779 33.6549 250.395 34.9375 250.395C36.3633 250.395 37.5286 250.863 38.4336 251.801C39.3385 252.732 39.791 254.021 39.791 255.668C39.791 257.003 39.5892 258.054 39.1855 258.822C38.7884 259.584 38.2057 260.176 37.4375 260.6C36.6758 261.023 35.8424 261.234 34.9375 261.234C33.4857 261.234 32.3105 260.769 31.4121 259.838C30.5202 258.907 30.0742 257.566 30.0742 255.814ZM31.8809 255.814C31.8809 257.143 32.1706 258.139 32.75 258.803C33.3294 259.46 34.0586 259.789 34.9375 259.789C35.8099 259.789 36.5358 259.457 37.1152 258.793C37.6947 258.129 37.9844 257.117 37.9844 255.756C37.9844 254.473 37.6914 253.503 37.1055 252.846C36.526 252.182 35.8034 251.85 34.9375 251.85C34.0586 251.85 33.3294 252.178 32.75 252.836C32.1706 253.493 31.8809 254.486 31.8809 255.814ZM41.8613 264.975V250.629H43.4629V251.977C43.8405 251.449 44.2669 251.055 44.7422 250.795C45.2174 250.528 45.7936 250.395 46.4707 250.395C47.3561 250.395 48.1374 250.622 48.8145 251.078C49.4915 251.534 50.0026 252.178 50.3477 253.012C50.6927 253.839 50.8652 254.747 50.8652 255.736C50.8652 256.798 50.6732 257.755 50.2891 258.607C49.9115 259.454 49.3581 260.105 48.6289 260.561C47.9062 261.01 47.1445 261.234 46.3438 261.234C45.7578 261.234 45.2305 261.111 44.7617 260.863C44.2995 260.616 43.9186 260.303 43.6191 259.926V264.975H41.8613ZM43.4531 255.873C43.4531 257.208 43.7233 258.194 44.2637 258.832C44.804 259.47 45.4583 259.789 46.2266 259.789C47.0078 259.789 47.6751 259.46 48.2285 258.803C48.7884 258.139 49.0684 257.113 49.0684 255.727C49.0684 254.405 48.7949 253.415 48.248 252.758C47.7077 252.1 47.0599 251.771 46.3047 251.771C45.556 251.771 44.8919 252.123 44.3125 252.826C43.7396 253.523 43.4531 254.538 43.4531 255.873ZM52.3398 255.814C52.3398 253.894 52.8737 252.471 53.9414 251.547C54.8333 250.779 55.9206 250.395 57.2031 250.395C58.6289 250.395 59.7943 250.863 60.6992 251.801C61.6042 252.732 62.0566 254.021 62.0566 255.668C62.0566 257.003 61.8548 258.054 61.4512 258.822C61.054 259.584 60.4714 260.176 59.7031 260.6C58.9414 261.023 58.1081 261.234 57.2031 261.234C55.7513 261.234 54.5762 260.769 53.6777 259.838C52.7858 258.907 52.3398 257.566 52.3398 255.814ZM54.1465 255.814C54.1465 257.143 54.4362 258.139 55.0156 258.803C55.5951 259.46 56.3242 259.789 57.2031 259.789C58.0755 259.789 58.8014 259.457 59.3809 258.793C59.9603 258.129 60.25 257.117 60.25 255.756C60.25 254.473 59.957 253.503 59.3711 252.846C58.7917 252.182 58.069 251.85 57.2031 251.85C56.3242 251.85 55.5951 252.178 55.0156 252.836C54.4362 253.493 54.1465 254.486 54.1465 255.814ZM64.1367 250.629H68.1895C69.1855 250.629 69.9245 250.714 70.4062 250.883C70.8945 251.046 71.3112 251.348 71.6562 251.791C72.0078 252.234 72.1836 252.764 72.1836 253.383C72.1836 253.878 72.0794 254.311 71.8711 254.682C71.6693 255.046 71.3633 255.352 70.9531 255.6C71.4414 255.762 71.8451 256.068 72.1641 256.518C72.4896 256.96 72.6523 257.488 72.6523 258.1C72.5872 259.083 72.2357 259.812 71.5977 260.287C70.9596 260.762 70.0319 261 68.8145 261H64.1367V250.629ZM65.8945 254.994H67.7695C68.5182 254.994 69.0326 254.955 69.3125 254.877C69.5924 254.799 69.8431 254.643 70.0645 254.408C70.2858 254.167 70.3965 253.881 70.3965 253.549C70.3965 253.002 70.2012 252.621 69.8105 252.406C69.4264 252.191 68.7656 252.084 67.8281 252.084H65.8945V254.994ZM65.8945 259.555H68.209C69.2051 259.555 69.8887 259.441 70.2598 259.213C70.6309 258.979 70.8262 258.578 70.8457 258.012C70.8457 257.68 70.7383 257.374 70.5234 257.094C70.3086 256.807 70.0286 256.628 69.6836 256.557C69.3385 256.479 68.7852 256.439 68.0234 256.439H65.8945V259.555ZM74.7227 250.629H76.4805V254.682H78.707C80.1589 254.682 81.2754 254.965 82.0566 255.531C82.8444 256.091 83.2383 256.866 83.2383 257.855C83.2383 258.721 82.9095 259.464 82.252 260.082C81.6009 260.694 80.556 261 79.1172 261H74.7227V250.629ZM76.4805 259.555H78.3262C79.4395 259.555 80.2337 259.418 80.709 259.145C81.1842 258.871 81.4219 258.445 81.4219 257.865C81.4219 257.416 81.2461 257.016 80.8945 256.664C80.543 256.312 79.765 256.137 78.5605 256.137H76.4805V259.555ZM93.3457 250.629V261H91.5977V256.957H90.582C89.9635 256.957 89.5013 257.038 89.1953 257.201C88.8958 257.357 88.4564 257.868 87.877 258.734L86.3438 261H84.166L86.0605 258.207C86.64 257.354 87.2161 256.872 87.7891 256.762C86.7865 256.625 86.041 256.264 85.5527 255.678C85.071 255.092 84.8301 254.418 84.8301 253.656C84.8301 252.758 85.1458 252.029 85.7773 251.469C86.4154 250.909 87.3366 250.629 88.541 250.629H93.3457ZM91.5977 252.084H89.0977C88.0495 252.084 87.3724 252.247 87.0664 252.572C86.7669 252.898 86.6172 253.279 86.6172 253.715C86.6172 254.333 86.8385 254.789 87.2812 255.082C87.7305 255.368 88.5215 255.512 89.6543 255.512H91.5977V252.084ZM96.4805 261V258.998H98.4824V261C98.4824 261.736 98.3522 262.328 98.0918 262.777C97.8314 263.233 97.418 263.585 96.8516 263.832L96.3633 263.08C96.7344 262.917 97.0078 262.676 97.1836 262.357C97.3594 262.045 97.457 261.592 97.4766 261H96.4805ZM16.3535 271.684H18.1113V276.635C18.4759 276.218 18.8763 275.909 19.3125 275.707C19.7487 275.499 20.2174 275.395 20.7188 275.395C21.9492 275.395 22.9225 275.909 23.6387 276.938C24.3613 277.96 24.7227 279.249 24.7227 280.805C24.7227 282.426 24.3353 283.738 23.5605 284.74C22.7858 285.736 21.8223 286.234 20.6699 286.234C20.2923 286.234 19.9082 286.176 19.5176 286.059C19.127 285.941 18.6582 285.622 18.1113 285.102V289.975H16.3535V285.102C16.002 285.479 15.6113 285.762 15.1816 285.951C14.7585 286.14 14.2995 286.234 13.8047 286.234C12.7174 286.234 11.7669 285.759 10.9531 284.809C10.1393 283.852 9.73242 282.484 9.73242 280.707C9.73242 279.203 10.1003 277.943 10.8359 276.928C11.5716 275.906 12.5612 275.395 13.8047 275.395C14.3255 275.395 14.7975 275.499 15.2207 275.707C15.6439 275.909 16.0215 276.218 16.3535 276.635V271.684ZM18.1016 280.854C18.1016 282.416 18.3164 283.467 18.7461 284.008C19.1758 284.542 19.7129 284.809 20.3574 284.809C21.0736 284.809 21.6823 284.48 22.1836 283.822C22.6914 283.158 22.9453 282.13 22.9453 280.736C22.9453 279.421 22.7109 278.441 22.2422 277.797C21.7799 277.152 21.1842 276.83 20.4551 276.83C19.6738 276.83 19.0846 277.165 18.6875 277.836C18.2969 278.507 18.1016 279.512 18.1016 280.854ZM11.5195 280.658C11.5195 282.123 11.7637 283.178 12.252 283.822C12.7467 284.467 13.3587 284.789 14.0879 284.789C14.8496 284.789 15.4193 284.47 15.7969 283.832C16.1745 283.188 16.3633 282.224 16.3633 280.941C16.3633 279.574 16.1647 278.549 15.7676 277.865C15.3704 277.182 14.7715 276.84 13.9707 276.84C13.248 276.84 12.6589 277.175 12.2031 277.846C11.7474 278.51 11.5195 279.447 11.5195 280.658ZM33.8828 282.66L35.6992 282.885C35.4128 283.946 34.8822 284.77 34.1074 285.355C33.3327 285.941 32.3431 286.234 31.1387 286.234C29.6217 286.234 28.4173 285.769 27.5254 284.838C26.64 283.9 26.1973 282.589 26.1973 280.902C26.1973 279.158 26.6465 277.803 27.5449 276.84C28.4434 275.876 29.6087 275.395 31.041 275.395C32.4277 275.395 33.5605 275.867 34.4395 276.811C35.3184 277.755 35.7578 279.083 35.7578 280.795C35.7578 280.899 35.7546 281.055 35.748 281.264H28.0137C28.0788 282.403 28.401 283.275 28.9805 283.881C29.5599 284.486 30.2826 284.789 31.1484 284.789C31.793 284.789 32.3431 284.62 32.7988 284.281C33.2546 283.943 33.6159 283.402 33.8828 282.66ZM28.1113 279.818H33.9023C33.8242 278.946 33.6029 278.292 33.2383 277.855C32.6784 277.178 31.9525 276.84 31.0605 276.84C30.2533 276.84 29.5729 277.11 29.0195 277.65C28.4727 278.191 28.1699 278.913 28.1113 279.818ZM37.916 289.975V275.629H39.5176V276.977C39.8952 276.449 40.3216 276.055 40.7969 275.795C41.2721 275.528 41.8483 275.395 42.5254 275.395C43.4108 275.395 44.1921 275.622 44.8691 276.078C45.5462 276.534 46.0573 277.178 46.4023 278.012C46.7474 278.839 46.9199 279.747 46.9199 280.736C46.9199 281.798 46.7279 282.755 46.3438 283.607C45.9661 284.454 45.4128 285.105 44.6836 285.561C43.9609 286.01 43.1992 286.234 42.3984 286.234C41.8125 286.234 41.2852 286.111 40.8164 285.863C40.3542 285.616 39.9733 285.303 39.6738 284.926V289.975H37.916ZM39.5078 280.873C39.5078 282.208 39.778 283.194 40.3184 283.832C40.8587 284.47 41.513 284.789 42.2812 284.789C43.0625 284.789 43.7298 284.46 44.2832 283.803C44.8431 283.139 45.123 282.113 45.123 280.727C45.123 279.405 44.8496 278.415 44.3027 277.758C43.7624 277.1 43.1146 276.771 42.3594 276.771C41.6107 276.771 40.9466 277.123 40.3672 277.826C39.7943 278.523 39.5078 279.538 39.5078 280.873ZM47.6523 275.629H56.0801V277.084H52.7402V286H50.9922V277.084H47.6523V275.629ZM57.7598 275.629H59.5176V283.539L64.3906 275.629H66.2852V286H64.5273V278.139L59.6543 286H57.7598V275.629ZM69.791 275.629H77.9551V286H76.207V277.084H71.5488V282.25C71.5488 283.454 71.5098 284.249 71.4316 284.633C71.3535 285.017 71.1387 285.352 70.7871 285.639C70.4355 285.925 69.9277 286.068 69.2637 286.068C68.8535 286.068 68.3815 286.042 67.8477 285.99V284.525H68.6191C68.9837 284.525 69.2441 284.49 69.4004 284.418C69.5566 284.34 69.6608 284.219 69.7129 284.057C69.765 283.894 69.791 283.363 69.791 282.465V275.629ZM80.582 275.629H82.3398V279.682H84.5664C86.0182 279.682 87.1348 279.965 87.916 280.531C88.7038 281.091 89.0977 281.866 89.0977 282.855C89.0977 283.721 88.7689 284.464 88.1113 285.082C87.4603 285.694 86.4154 286 84.9766 286H80.582V275.629ZM82.3398 284.555H84.1855C85.2988 284.555 86.0931 284.418 86.5684 284.145C87.0436 283.871 87.2812 283.445 87.2812 282.865C87.2812 282.416 87.1055 282.016 86.7539 281.664C86.4023 281.312 85.6243 281.137 84.4199 281.137H82.3398V284.555ZM91.0508 275.629H92.8086V279.945H97.6816V275.629H99.4395V286H97.6816V281.4H92.8086V286H91.0508V275.629ZM101.441 280.814C101.441 278.894 101.975 277.471 103.043 276.547C103.935 275.779 105.022 275.395 106.305 275.395C107.73 275.395 108.896 275.863 109.801 276.801C110.706 277.732 111.158 279.021 111.158 280.668C111.158 282.003 110.956 283.054 110.553 283.822C110.156 284.584 109.573 285.176 108.805 285.6C108.043 286.023 107.21 286.234 106.305 286.234C104.853 286.234 103.678 285.769 102.779 284.838C101.887 283.907 101.441 282.566 101.441 280.814ZM103.248 280.814C103.248 282.143 103.538 283.139 104.117 283.803C104.697 284.46 105.426 284.789 106.305 284.789C107.177 284.789 107.903 284.457 108.482 283.793C109.062 283.129 109.352 282.117 109.352 280.756C109.352 279.473 109.059 278.503 108.473 277.846C107.893 277.182 107.171 276.85 106.305 276.85C105.426 276.85 104.697 277.178 104.117 277.836C103.538 278.493 103.248 279.486 103.248 280.814ZM119.996 282.201L121.725 282.426C121.536 283.617 121.051 284.551 120.27 285.229C119.495 285.899 118.541 286.234 117.408 286.234C115.989 286.234 114.846 285.772 113.98 284.848C113.121 283.917 112.691 282.585 112.691 280.854C112.691 279.734 112.877 278.754 113.248 277.914C113.619 277.074 114.182 276.446 114.938 276.029C115.699 275.606 116.526 275.395 117.418 275.395C118.544 275.395 119.465 275.681 120.182 276.254C120.898 276.82 121.357 277.628 121.559 278.676L119.85 278.939C119.687 278.243 119.397 277.719 118.98 277.367C118.57 277.016 118.072 276.84 117.486 276.84C116.601 276.84 115.882 277.159 115.328 277.797C114.775 278.428 114.498 279.431 114.498 280.805C114.498 282.198 114.765 283.21 115.299 283.842C115.833 284.473 116.529 284.789 117.389 284.789C118.079 284.789 118.655 284.577 119.117 284.154C119.579 283.731 119.872 283.08 119.996 282.201ZM122.281 275.629H130.709V277.084H127.369V286H125.621V277.084H122.281V275.629ZM132.389 275.629H134.146V283.539L139.02 275.629H140.914V286H139.156V278.139L134.283 286H132.389V275.629ZM144.02 286V283.998H146.021V286C146.021 286.736 145.891 287.328 145.631 287.777C145.37 288.233 144.957 288.585 144.391 288.832L143.902 288.08C144.273 287.917 144.547 287.676 144.723 287.357C144.898 287.045 144.996 286.592 145.016 286H144.02ZM154.684 275.629H156.441V280.111C157.001 280.111 157.392 280.004 157.613 279.789C157.841 279.574 158.173 278.949 158.609 277.914C158.954 277.094 159.234 276.553 159.449 276.293C159.664 276.033 159.911 275.857 160.191 275.766C160.471 275.674 160.921 275.629 161.539 275.629H161.891V277.084L161.402 277.074C160.94 277.074 160.644 277.143 160.514 277.279C160.377 277.423 160.169 277.849 159.889 278.559C159.622 279.236 159.378 279.704 159.156 279.965C158.935 280.225 158.593 280.463 158.131 280.678C158.886 280.88 159.628 281.583 160.357 282.787L162.281 286H160.348L158.473 282.787C158.089 282.143 157.753 281.719 157.467 281.518C157.18 281.309 156.839 281.205 156.441 281.205V286H154.684V275.629ZM170.66 284.721C170.009 285.274 169.381 285.665 168.775 285.893C168.176 286.12 167.532 286.234 166.842 286.234C165.702 286.234 164.827 285.958 164.215 285.404C163.603 284.844 163.297 284.132 163.297 283.266C163.297 282.758 163.411 282.296 163.639 281.879C163.873 281.456 164.176 281.117 164.547 280.863C164.924 280.609 165.348 280.417 165.816 280.287C166.161 280.196 166.682 280.108 167.379 280.023C168.798 279.854 169.843 279.652 170.514 279.418C170.52 279.177 170.523 279.024 170.523 278.959C170.523 278.243 170.357 277.738 170.025 277.445C169.576 277.048 168.909 276.85 168.023 276.85C167.197 276.85 166.585 276.996 166.188 277.289C165.797 277.576 165.507 278.087 165.318 278.822L163.6 278.588C163.756 277.852 164.013 277.26 164.371 276.811C164.729 276.355 165.247 276.007 165.924 275.766C166.601 275.518 167.385 275.395 168.277 275.395C169.163 275.395 169.882 275.499 170.436 275.707C170.989 275.915 171.396 276.179 171.656 276.498C171.917 276.811 172.099 277.208 172.203 277.689C172.262 277.989 172.291 278.529 172.291 279.311V281.654C172.291 283.288 172.327 284.324 172.398 284.76C172.477 285.189 172.626 285.603 172.848 286H171.012C170.829 285.635 170.712 285.209 170.66 284.721ZM170.514 280.795C169.876 281.055 168.919 281.277 167.643 281.459C166.92 281.563 166.409 281.68 166.109 281.811C165.81 281.941 165.579 282.133 165.416 282.387C165.253 282.634 165.172 282.911 165.172 283.217C165.172 283.686 165.348 284.076 165.699 284.389C166.057 284.701 166.578 284.857 167.262 284.857C167.939 284.857 168.541 284.711 169.068 284.418C169.596 284.118 169.983 283.712 170.23 283.197C170.419 282.8 170.514 282.214 170.514 281.439V280.795ZM175.016 275.629H176.773V280.111C177.333 280.111 177.724 280.004 177.945 279.789C178.173 279.574 178.505 278.949 178.941 277.914C179.286 277.094 179.566 276.553 179.781 276.293C179.996 276.033 180.243 275.857 180.523 275.766C180.803 275.674 181.253 275.629 181.871 275.629H182.223V277.084L181.734 277.074C181.272 277.074 180.976 277.143 180.846 277.279C180.709 277.423 180.501 277.849 180.221 278.559C179.954 279.236 179.71 279.704 179.488 279.965C179.267 280.225 178.925 280.463 178.463 280.678C179.218 280.88 179.96 281.583 180.689 282.787L182.613 286H180.68L178.805 282.787C178.421 282.143 178.085 281.719 177.799 281.518C177.512 281.309 177.171 281.205 176.773 281.205V286H175.016V275.629ZM189.342 289.975V275.629H190.943V276.977C191.321 276.449 191.747 276.055 192.223 275.795C192.698 275.528 193.274 275.395 193.951 275.395C194.837 275.395 195.618 275.622 196.295 276.078C196.972 276.534 197.483 277.178 197.828 278.012C198.173 278.839 198.346 279.747 198.346 280.736C198.346 281.798 198.154 282.755 197.77 283.607C197.392 284.454 196.839 285.105 196.109 285.561C195.387 286.01 194.625 286.234 193.824 286.234C193.238 286.234 192.711 286.111 192.242 285.863C191.78 285.616 191.399 285.303 191.1 284.926V289.975H189.342ZM190.934 280.873C190.934 282.208 191.204 283.194 191.744 283.832C192.285 284.47 192.939 284.789 193.707 284.789C194.488 284.789 195.156 284.46 195.709 283.803C196.269 283.139 196.549 282.113 196.549 280.727C196.549 279.405 196.275 278.415 195.729 277.758C195.188 277.1 194.54 276.771 193.785 276.771C193.036 276.771 192.372 277.123 191.793 277.826C191.22 278.523 190.934 279.538 190.934 280.873ZM207.242 284.721C206.591 285.274 205.963 285.665 205.357 285.893C204.758 286.12 204.114 286.234 203.424 286.234C202.285 286.234 201.409 285.958 200.797 285.404C200.185 284.844 199.879 284.132 199.879 283.266C199.879 282.758 199.993 282.296 200.221 281.879C200.455 281.456 200.758 281.117 201.129 280.863C201.507 280.609 201.93 280.417 202.398 280.287C202.743 280.196 203.264 280.108 203.961 280.023C205.38 279.854 206.425 279.652 207.096 279.418C207.102 279.177 207.105 279.024 207.105 278.959C207.105 278.243 206.939 277.738 206.607 277.445C206.158 277.048 205.491 276.85 204.605 276.85C203.779 276.85 203.167 276.996 202.77 277.289C202.379 277.576 202.089 278.087 201.9 278.822L200.182 278.588C200.338 277.852 200.595 277.26 200.953 276.811C201.311 276.355 201.829 276.007 202.506 275.766C203.183 275.518 203.967 275.395 204.859 275.395C205.745 275.395 206.464 275.499 207.018 275.707C207.571 275.915 207.978 276.179 208.238 276.498C208.499 276.811 208.681 277.208 208.785 277.689C208.844 277.989 208.873 278.529 208.873 279.311V281.654C208.873 283.288 208.909 284.324 208.98 284.76C209.059 285.189 209.208 285.603 209.43 286H207.594C207.411 285.635 207.294 285.209 207.242 284.721ZM207.096 280.795C206.458 281.055 205.501 281.277 204.225 281.459C203.502 281.563 202.991 281.68 202.691 281.811C202.392 281.941 202.161 282.133 201.998 282.387C201.835 282.634 201.754 282.911 201.754 283.217C201.754 283.686 201.93 284.076 202.281 284.389C202.639 284.701 203.16 284.857 203.844 284.857C204.521 284.857 205.123 284.711 205.65 284.418C206.178 284.118 206.565 283.712 206.812 283.197C207.001 282.8 207.096 282.214 207.096 281.439V280.795ZM213.668 281.312V279.936C214.41 279.929 214.915 279.9 215.182 279.848C215.455 279.796 215.712 279.639 215.953 279.379C216.194 279.118 216.314 278.793 216.314 278.402C216.314 277.927 216.155 277.549 215.836 277.27C215.523 276.983 215.117 276.84 214.615 276.84C213.626 276.84 212.932 277.423 212.535 278.588L210.865 278.314C211.386 276.368 212.643 275.395 214.635 275.395C215.742 275.395 216.607 275.697 217.232 276.303C217.864 276.908 218.18 277.631 218.18 278.471C218.18 279.317 217.77 279.991 216.949 280.492C217.47 280.772 217.861 281.13 218.121 281.566C218.382 281.996 218.512 282.507 218.512 283.1C218.512 284.031 218.173 284.786 217.496 285.365C216.819 285.945 215.872 286.234 214.654 286.234C212.291 286.234 210.921 285.183 210.543 283.08L212.193 282.729C212.343 283.393 212.646 283.907 213.102 284.271C213.564 284.636 214.091 284.818 214.684 284.818C215.276 284.818 215.768 284.652 216.158 284.32C216.555 283.982 216.754 283.552 216.754 283.031C216.754 282.628 216.63 282.276 216.383 281.977C216.135 281.677 215.872 281.492 215.592 281.42C215.312 281.342 214.804 281.303 214.068 281.303C214.01 281.303 213.876 281.306 213.668 281.312ZM2.88672 305.844L5.41602 310.297H3.99023L0.875 305.844L3.99023 301.391H5.43555L2.88672 305.844ZM6.66602 305.844L9.24414 310.297H7.75977L4.70312 305.844L7.75977 301.391H9.24414L6.66602 305.844ZM13.9316 311L10.7578 300.629H12.5742L14.2246 306.615L14.8398 308.842C14.8659 308.731 15.0449 308.018 15.377 306.703L17.0273 300.629H18.834L20.3867 306.645L20.9043 308.627L21.5 306.625L23.2773 300.629H24.9863L21.7441 311H19.918L18.2676 304.789L17.8672 303.021L15.7676 311H13.9316ZM33.2383 309.721C32.5872 310.274 31.959 310.665 31.3535 310.893C30.7546 311.12 30.11 311.234 29.4199 311.234C28.2806 311.234 27.4049 310.958 26.793 310.404C26.181 309.844 25.875 309.132 25.875 308.266C25.875 307.758 25.9889 307.296 26.2168 306.879C26.4512 306.456 26.7539 306.117 27.125 305.863C27.5026 305.609 27.9258 305.417 28.3945 305.287C28.7396 305.196 29.2604 305.108 29.957 305.023C31.3763 304.854 32.4212 304.652 33.0918 304.418C33.0983 304.177 33.1016 304.024 33.1016 303.959C33.1016 303.243 32.9355 302.738 32.6035 302.445C32.1543 302.048 31.487 301.85 30.6016 301.85C29.7747 301.85 29.1628 301.996 28.7656 302.289C28.375 302.576 28.0853 303.087 27.8965 303.822L26.1777 303.588C26.334 302.852 26.5911 302.26 26.9492 301.811C27.3073 301.355 27.8249 301.007 28.502 300.766C29.179 300.518 29.9635 300.395 30.8555 300.395C31.7409 300.395 32.4603 300.499 33.0137 300.707C33.5671 300.915 33.974 301.179 34.2344 301.498C34.4948 301.811 34.6771 302.208 34.7812 302.689C34.8398 302.989 34.8691 303.529 34.8691 304.311V306.654C34.8691 308.288 34.9049 309.324 34.9766 309.76C35.0547 310.189 35.2044 310.603 35.4258 311H33.5898C33.4076 310.635 33.2904 310.209 33.2383 309.721ZM33.0918 305.795C32.4538 306.055 31.4967 306.277 30.2207 306.459C29.498 306.563 28.987 306.68 28.6875 306.811C28.388 306.941 28.1569 307.133 27.9941 307.387C27.8314 307.634 27.75 307.911 27.75 308.217C27.75 308.686 27.9258 309.076 28.2773 309.389C28.6354 309.701 29.1562 309.857 29.8398 309.857C30.5169 309.857 31.1191 309.711 31.6465 309.418C32.1738 309.118 32.5612 308.712 32.8086 308.197C32.9974 307.8 33.0918 307.214 33.0918 306.439V305.795ZM37.6133 298.705V296.684H39.3711V298.705H37.6133ZM37.6133 311V300.629H39.3711V311H37.6133ZM41.3535 307.904L43.0918 307.631C43.1895 308.327 43.4596 308.861 43.9023 309.232C44.3516 309.604 44.9766 309.789 45.7773 309.789C46.5846 309.789 47.1836 309.626 47.5742 309.301C47.9648 308.969 48.1602 308.581 48.1602 308.139C48.1602 307.742 47.9876 307.429 47.6426 307.201C47.4017 307.045 46.8027 306.846 45.8457 306.605C44.5566 306.28 43.6615 306 43.1602 305.766C42.6654 305.525 42.2878 305.196 42.0273 304.779C41.7734 304.356 41.6465 303.891 41.6465 303.383C41.6465 302.921 41.7507 302.494 41.959 302.104C42.1738 301.706 42.4635 301.378 42.8281 301.117C43.1016 300.915 43.4727 300.746 43.9414 300.609C44.4167 300.466 44.9245 300.395 45.4648 300.395C46.2786 300.395 46.9915 300.512 47.6035 300.746C48.222 300.98 48.6777 301.299 48.9707 301.703C49.2637 302.1 49.4655 302.634 49.5762 303.305L47.8574 303.539C47.7793 303.005 47.5514 302.589 47.1738 302.289C46.8027 301.99 46.2754 301.84 45.5918 301.84C44.7845 301.84 44.2083 301.973 43.8633 302.24C43.5182 302.507 43.3457 302.82 43.3457 303.178C43.3457 303.406 43.4173 303.611 43.5605 303.793C43.7038 303.982 43.9284 304.138 44.2344 304.262C44.4102 304.327 44.9277 304.477 45.7871 304.711C47.0306 305.043 47.8965 305.316 48.3848 305.531C48.8796 305.74 49.2669 306.046 49.5469 306.449C49.8268 306.853 49.9668 307.354 49.9668 307.953C49.9668 308.539 49.7943 309.092 49.4492 309.613C49.1107 310.128 48.6191 310.528 47.9746 310.814C47.3301 311.094 46.6009 311.234 45.7871 311.234C44.4395 311.234 43.4108 310.954 42.7012 310.395C41.998 309.835 41.5488 309.005 41.3535 307.904ZM55.8945 309.428L56.1484 310.98C55.6536 311.085 55.2109 311.137 54.8203 311.137C54.1823 311.137 53.6875 311.036 53.3359 310.834C52.9844 310.632 52.737 310.368 52.5938 310.043C52.4505 309.711 52.3789 309.018 52.3789 307.963V301.996H51.0898V300.629H52.3789V298.061L54.127 297.006V300.629H55.8945V301.996H54.127V308.061C54.127 308.562 54.1562 308.884 54.2148 309.027C54.2799 309.171 54.3809 309.285 54.5176 309.369C54.6608 309.454 54.8626 309.496 55.123 309.496C55.3184 309.496 55.5755 309.473 55.8945 309.428ZM61.4609 309.428L61.7148 310.98C61.2201 311.085 60.7773 311.137 60.3867 311.137C59.7487 311.137 59.2539 311.036 58.9023 310.834C58.5508 310.632 58.3034 310.368 58.1602 310.043C58.0169 309.711 57.9453 309.018 57.9453 307.963V301.996H56.6562V300.629H57.9453V298.061L59.6934 297.006V300.629H61.4609V301.996H59.6934V308.061C59.6934 308.562 59.7227 308.884 59.7812 309.027C59.8464 309.171 59.9473 309.285 60.084 309.369C60.2272 309.454 60.429 309.496 60.6895 309.496C60.8848 309.496 61.1419 309.473 61.4609 309.428ZM62.5352 305.814C62.5352 303.894 63.069 302.471 64.1367 301.547C65.0286 300.779 66.1159 300.395 67.3984 300.395C68.8242 300.395 69.9896 300.863 70.8945 301.801C71.7995 302.732 72.252 304.021 72.252 305.668C72.252 307.003 72.0501 308.054 71.6465 308.822C71.2493 309.584 70.6667 310.176 69.8984 310.6C69.1367 311.023 68.3034 311.234 67.3984 311.234C65.9466 311.234 64.7715 310.769 63.873 309.838C62.9811 308.907 62.5352 307.566 62.5352 305.814ZM64.3418 305.814C64.3418 307.143 64.6315 308.139 65.2109 308.803C65.7904 309.46 66.5195 309.789 67.3984 309.789C68.2708 309.789 68.9967 309.457 69.5762 308.793C70.1556 308.129 70.4453 307.117 70.4453 305.756C70.4453 304.473 70.1523 303.503 69.5664 302.846C68.987 302.182 68.2643 301.85 67.3984 301.85C66.5195 301.85 65.7904 302.178 65.2109 302.836C64.6315 303.493 64.3418 304.486 64.3418 305.814ZM79.8887 311V296.684H81.6465V301.82C82.4668 300.87 83.502 300.395 84.752 300.395C85.5202 300.395 86.1875 300.548 86.7539 300.854C87.3203 301.153 87.724 301.57 87.9648 302.104C88.2122 302.637 88.3359 303.412 88.3359 304.428V311H86.5781V304.428C86.5781 303.549 86.3861 302.911 86.002 302.514C85.6243 302.11 85.0872 301.908 84.3906 301.908C83.8698 301.908 83.3783 302.045 82.916 302.318C82.4603 302.585 82.1348 302.95 81.9395 303.412C81.7441 303.874 81.6465 304.512 81.6465 305.326V311H79.8887ZM91.0312 298.705V296.684H92.7891V298.705H91.0312ZM91.0312 311V300.629H92.7891V311H91.0312ZM95.4746 314.975V300.629H97.0762V301.977C97.4538 301.449 97.8802 301.055 98.3555 300.795C98.8307 300.528 99.4069 300.395 100.084 300.395C100.969 300.395 101.751 300.622 102.428 301.078C103.105 301.534 103.616 302.178 103.961 303.012C104.306 303.839 104.479 304.747 104.479 305.736C104.479 306.798 104.286 307.755 103.902 308.607C103.525 309.454 102.971 310.105 102.242 310.561C101.52 311.01 100.758 311.234 99.957 311.234C99.3711 311.234 98.8438 311.111 98.375 310.863C97.9128 310.616 97.5319 310.303 97.2324 309.926V314.975H95.4746ZM97.0664 305.873C97.0664 307.208 97.3366 308.194 97.877 308.832C98.4173 309.47 99.0716 309.789 99.8398 309.789C100.621 309.789 101.288 309.46 101.842 308.803C102.402 308.139 102.682 307.113 102.682 305.727C102.682 304.405 102.408 303.415 101.861 302.758C101.321 302.1 100.673 301.771 99.918 301.771C99.1693 301.771 98.5052 302.123 97.9258 302.826C97.3529 303.523 97.0664 304.538 97.0664 305.873ZM112.154 311V300.629H113.736V302.201C114.14 301.465 114.511 300.98 114.85 300.746C115.195 300.512 115.572 300.395 115.982 300.395C116.575 300.395 117.177 300.583 117.789 300.961L117.184 302.592C116.754 302.338 116.324 302.211 115.895 302.211C115.51 302.211 115.165 302.328 114.859 302.562C114.553 302.79 114.335 303.109 114.205 303.52C114.01 304.145 113.912 304.828 113.912 305.57V311H112.154ZM125.602 309.721C124.951 310.274 124.322 310.665 123.717 310.893C123.118 311.12 122.473 311.234 121.783 311.234C120.644 311.234 119.768 310.958 119.156 310.404C118.544 309.844 118.238 309.132 118.238 308.266C118.238 307.758 118.352 307.296 118.58 306.879C118.814 306.456 119.117 306.117 119.488 305.863C119.866 305.609 120.289 305.417 120.758 305.287C121.103 305.196 121.624 305.108 122.32 305.023C123.74 304.854 124.785 304.652 125.455 304.418C125.462 304.177 125.465 304.024 125.465 303.959C125.465 303.243 125.299 302.738 124.967 302.445C124.518 302.048 123.85 301.85 122.965 301.85C122.138 301.85 121.526 301.996 121.129 302.289C120.738 302.576 120.449 303.087 120.26 303.822L118.541 303.588C118.697 302.852 118.954 302.26 119.312 301.811C119.671 301.355 120.188 301.007 120.865 300.766C121.542 300.518 122.327 300.395 123.219 300.395C124.104 300.395 124.824 300.499 125.377 300.707C125.93 300.915 126.337 301.179 126.598 301.498C126.858 301.811 127.04 302.208 127.145 302.689C127.203 302.989 127.232 303.529 127.232 304.311V306.654C127.232 308.288 127.268 309.324 127.34 309.76C127.418 310.189 127.568 310.603 127.789 311H125.953C125.771 310.635 125.654 310.209 125.602 309.721ZM125.455 305.795C124.817 306.055 123.86 306.277 122.584 306.459C121.861 306.563 121.35 306.68 121.051 306.811C120.751 306.941 120.52 307.133 120.357 307.387C120.195 307.634 120.113 307.911 120.113 308.217C120.113 308.686 120.289 309.076 120.641 309.389C120.999 309.701 121.52 309.857 122.203 309.857C122.88 309.857 123.482 309.711 124.01 309.418C124.537 309.118 124.924 308.712 125.172 308.197C125.361 307.8 125.455 307.214 125.455 306.439V305.795ZM133.805 309.428L134.059 310.98C133.564 311.085 133.121 311.137 132.73 311.137C132.092 311.137 131.598 311.036 131.246 310.834C130.895 310.632 130.647 310.368 130.504 310.043C130.361 309.711 130.289 309.018 130.289 307.963V301.996H129V300.629H130.289V298.061L132.037 297.006V300.629H133.805V301.996H132.037V308.061C132.037 308.562 132.066 308.884 132.125 309.027C132.19 309.171 132.291 309.285 132.428 309.369C132.571 309.454 132.773 309.496 133.033 309.496C133.229 309.496 133.486 309.473 133.805 309.428ZM135.543 298.705V296.684H137.301V298.705H135.543ZM135.543 311V300.629H137.301V311H135.543ZM139.332 305.814C139.332 303.894 139.866 302.471 140.934 301.547C141.826 300.779 142.913 300.395 144.195 300.395C145.621 300.395 146.786 300.863 147.691 301.801C148.596 302.732 149.049 304.021 149.049 305.668C149.049 307.003 148.847 308.054 148.443 308.822C148.046 309.584 147.464 310.176 146.695 310.6C145.934 311.023 145.1 311.234 144.195 311.234C142.743 311.234 141.568 310.769 140.67 309.838C139.778 308.907 139.332 307.566 139.332 305.814ZM141.139 305.814C141.139 307.143 141.428 308.139 142.008 308.803C142.587 309.46 143.316 309.789 144.195 309.789C145.068 309.789 145.794 309.457 146.373 308.793C146.952 308.129 147.242 307.117 147.242 305.756C147.242 304.473 146.949 303.503 146.363 302.846C145.784 302.182 145.061 301.85 144.195 301.85C143.316 301.85 142.587 302.178 142.008 302.836C141.428 303.493 141.139 304.486 141.139 305.814ZM157.525 305.844L154.977 301.391H156.422L159.537 305.844L156.422 310.297H154.986L157.525 305.844ZM153.746 305.844L151.168 301.391H152.643L155.709 305.844L152.643 310.297H151.168L153.746 305.844ZM162.75 311V308.998H164.752V311H162.75Z" fill="#777777"/>
<path d="M9.66211 56.0605C9.66211 46.2949 12.0384 38.043 16.791 31.3047C21.5762 24.5664 27.9564 21.1973 35.9316 21.1973C52.5658 21.1973 60.8828 33.3392 60.8828 57.623C60.8828 68.9837 58.6367 78.0495 54.1445 84.8203C49.6523 91.5911 43.3535 94.9766 35.248 94.9766C26.5241 94.9766 20.0788 91.8516 15.9121 85.6016C11.7454 79.3516 9.66211 69.5046 9.66211 56.0605ZM22.8457 56.9395C22.8457 66.4772 23.7734 73.4922 25.6289 77.9844C27.4844 82.4766 30.5605 84.7227 34.8574 84.7227C39.5124 84.7227 42.8164 82.7044 44.7695 78.668C46.7227 74.599 47.6992 67.3724 47.6992 56.9883C47.6992 47.3203 46.7552 40.6471 44.8672 36.9688C43.0117 33.2904 39.9518 31.4512 35.6875 31.4512C27.1263 31.4512 22.8457 39.9473 22.8457 56.9395ZM70.1895 112.262L66.0391 106.939C71.9961 102.48 74.9746 98.9805 74.9746 96.4414C74.9746 95.4648 74.6328 94.5046 73.9492 93.5605C70.8568 92.0632 69.3105 89.9635 69.3105 87.2617C69.3105 85.3086 70.1243 83.6973 71.752 82.4277C73.3796 81.1257 75.3978 80.4746 77.8066 80.4746C80.0527 80.4746 82.0059 81.3372 83.666 83.0625C85.3587 84.7552 86.2051 86.7246 86.2051 88.9707C86.2051 93.1048 85.2285 96.8646 83.2754 100.25C81.3548 103.668 76.9928 107.672 70.1895 112.262ZM117.533 94H103.617C108.923 77.6589 118.038 57.623 130.961 33.8926H98.1973V22.1738H147.514V27.5938L141.068 39.752C138.952 43.8535 136.723 48.3457 134.379 53.2285C132.035 58.0788 129.757 63.0267 127.543 68.0723C125.329 73.0853 123.376 77.7891 121.684 82.1836C119.991 86.5456 118.607 90.4844 117.533 94ZM172.689 94V42.4375L158.139 51.1777V38.9707C167.481 34.446 174.87 28.847 180.307 22.1738H185.385V94H172.689Z" fill="#777777"/>
</svg>
